<?xml version="1.0" encoding="utf-8" standalone="no"?>
<!DOCTYPE svg PUBLIC "-//W3C//DTD SVG 1.1//EN"
  "http://www.w3.org/Graphics/SVG/1.1/DTD/svg11.dtd">
<svg xmlns:xlink="http://www.w3.org/1999/xlink" width="900.70625pt" height="226.194375pt" viewBox="0 0 900.70625 226.194375" xmlns="http://www.w3.org/2000/svg" version="1.1">
 <metadata>
  <rdf:RDF xmlns:dc="http://purl.org/dc/elements/1.1/" xmlns:cc="http://creativecommons.org/ns#" xmlns:rdf="http://www.w3.org/1999/02/22-rdf-syntax-ns#">
   <cc:Work>
    <dc:type rdf:resource="http://purl.org/dc/dcmitype/StillImage"/>
    <dc:date>2023-01-12T18:00:00.424431</dc:date>
    <dc:format>image/svg+xml</dc:format>
    <dc:creator>
     <cc:Agent>
      <dc:title>Matplotlib v3.5.1, https://matplotlib.org/</dc:title>
     </cc:Agent>
    </dc:creator>
   </cc:Work>
  </rdf:RDF>
 </metadata>
 <defs>
  <style type="text/css">*{stroke-linejoin: round; stroke-linecap: butt}</style>
 </defs>
 <g id="figure_1">
  <g id="patch_1">
   <path d="M 0 226.194375 
L 900.70625 226.194375 
L 900.70625 0 
L 0 0 
z
" style="fill: #ffffff"/>
  </g>
  <g id="axes_1">
   <g id="patch_2">
    <path d="M 56.50625 188.638125 
L 302.682721 188.638125 
L 302.682721 22.318125 
L 56.50625 22.318125 
z
" style="fill: #ffffff"/>
   </g>
   <g id="patch_3">
    <path d="M 67.69609 188.638125 
L 69.267381 188.638125 
L 69.267381 30.238125 
L 67.69609 30.238125 
z
" clip-path="url(#p72f6cde606)" style="fill: #1f77b4"/>
   </g>
   <g id="patch_4">
    <path d="M 69.940792 188.638125 
L 71.512083 188.638125 
L 71.512083 40.845699 
L 69.940792 40.845699 
z
" clip-path="url(#p72f6cde606)" style="fill: #1f77b4"/>
   </g>
   <g id="patch_5">
    <path d="M 72.185494 188.638125 
L 73.756785 188.638125 
L 73.756785 46.718305 
L 72.185494 46.718305 
z
" clip-path="url(#p72f6cde606)" style="fill: #1f77b4"/>
   </g>
   <g id="patch_6">
    <path d="M 74.430196 188.638125 
L 76.001487 188.638125 
L 76.001487 50.742916 
L 74.430196 50.742916 
z
" clip-path="url(#p72f6cde606)" style="fill: #1f77b4"/>
   </g>
   <g id="patch_7">
    <path d="M 76.674898 188.638125 
L 78.246189 188.638125 
L 78.246189 53.785881 
L 76.674898 53.785881 
z
" clip-path="url(#p72f6cde606)" style="fill: #1f77b4"/>
   </g>
   <g id="patch_8">
    <path d="M 78.9196 188.638125 
L 80.490891 188.638125 
L 80.490891 56.222251 
L 78.9196 56.222251 
z
" clip-path="url(#p72f6cde606)" style="fill: #1f77b4"/>
   </g>
   <g id="patch_9">
    <path d="M 81.164302 188.638125 
L 82.735593 188.638125 
L 82.735593 58.247798 
L 81.164302 58.247798 
z
" clip-path="url(#p72f6cde606)" style="fill: #1f77b4"/>
   </g>
   <g id="patch_10">
    <path d="M 83.409004 188.638125 
L 84.980295 188.638125 
L 84.980295 59.977345 
L 83.409004 59.977345 
z
" clip-path="url(#p72f6cde606)" style="fill: #1f77b4"/>
   </g>
   <g id="patch_11">
    <path d="M 85.653706 188.638125 
L 87.224997 188.638125 
L 87.224997 61.483862 
L 85.653706 61.483862 
z
" clip-path="url(#p72f6cde606)" style="fill: #1f77b4"/>
   </g>
   <g id="patch_12">
    <path d="M 87.898408 188.638125 
L 89.469699 188.638125 
L 89.469699 62.816533 
L 87.898408 62.816533 
z
" clip-path="url(#p72f6cde606)" style="fill: #1f77b4"/>
   </g>
   <g id="patch_13">
    <path d="M 90.14311 188.638125 
L 91.714401 188.638125 
L 91.714401 64.010044 
L 90.14311 64.010044 
z
" clip-path="url(#p72f6cde606)" style="fill: #1f77b4"/>
   </g>
   <g id="patch_14">
    <path d="M 92.387812 188.638125 
L 93.959103 188.638125 
L 93.959103 65.089746 
L 92.387812 65.089746 
z
" clip-path="url(#p72f6cde606)" style="fill: #1f77b4"/>
   </g>
   <g id="patch_15">
    <path d="M 94.632514 188.638125 
L 96.203805 188.638125 
L 96.203805 66.074713 
L 94.632514 66.074713 
z
" clip-path="url(#p72f6cde606)" style="fill: #1f77b4"/>
   </g>
   <g id="patch_16">
    <path d="M 96.877216 188.638125 
L 98.448507 188.638125 
L 98.448507 66.979648 
L 96.877216 66.979648 
z
" clip-path="url(#p72f6cde606)" style="fill: #1f77b4"/>
   </g>
   <g id="patch_17">
    <path d="M 99.121918 188.638125 
L 100.693209 188.638125 
L 100.693209 67.816116 
L 99.121918 67.816116 
z
" clip-path="url(#p72f6cde606)" style="fill: #1f77b4"/>
   </g>
   <g id="patch_18">
    <path d="M 101.36662 188.638125 
L 102.937911 188.638125 
L 102.937911 68.593373 
L 101.36662 68.593373 
z
" clip-path="url(#p72f6cde606)" style="fill: #1f77b4"/>
   </g>
   <g id="patch_19">
    <path d="M 103.611322 188.638125 
L 105.182613 188.638125 
L 105.182613 69.318938 
L 103.611322 69.318938 
z
" clip-path="url(#p72f6cde606)" style="fill: #1f77b4"/>
   </g>
   <g id="patch_20">
    <path d="M 105.856024 188.638125 
L 107.427315 188.638125 
L 107.427315 69.999002 
L 105.856024 69.999002 
z
" clip-path="url(#p72f6cde606)" style="fill: #1f77b4"/>
   </g>
   <g id="patch_21">
    <path d="M 108.100726 188.638125 
L 109.672017 188.638125 
L 109.672017 70.63872 
L 108.100726 70.63872 
z
" clip-path="url(#p72f6cde606)" style="fill: #1f77b4"/>
   </g>
   <g id="patch_22">
    <path d="M 110.345428 188.638125 
L 111.916719 188.638125 
L 111.916719 71.242428 
L 110.345428 71.242428 
z
" clip-path="url(#p72f6cde606)" style="fill: #1f77b4"/>
   </g>
   <g id="patch_23">
    <path d="M 112.59013 188.638125 
L 114.161421 188.638125 
L 114.161421 71.813809 
L 112.59013 71.813809 
z
" clip-path="url(#p72f6cde606)" style="fill: #1f77b4"/>
   </g>
   <g id="patch_24">
    <path d="M 114.834832 188.638125 
L 116.406123 188.638125 
L 116.406123 72.356014 
L 114.834832 72.356014 
z
" clip-path="url(#p72f6cde606)" style="fill: #1f77b4"/>
   </g>
   <g id="patch_25">
    <path d="M 117.079534 188.638125 
L 118.650825 188.638125 
L 118.650825 72.871761 
L 117.079534 72.871761 
z
" clip-path="url(#p72f6cde606)" style="fill: #1f77b4"/>
   </g>
   <g id="patch_26">
    <path d="M 119.324236 188.638125 
L 120.895527 188.638125 
L 120.895527 73.363411 
L 119.324236 73.363411 
z
" clip-path="url(#p72f6cde606)" style="fill: #1f77b4"/>
   </g>
   <g id="patch_27">
    <path d="M 121.568938 188.638125 
L 123.140229 188.638125 
L 123.140229 73.833026 
L 121.568938 73.833026 
z
" clip-path="url(#p72f6cde606)" style="fill: #1f77b4"/>
   </g>
   <g id="patch_28">
    <path d="M 123.81364 188.638125 
L 125.384931 188.638125 
L 125.384931 74.282418 
L 123.81364 74.282418 
z
" clip-path="url(#p72f6cde606)" style="fill: #1f77b4"/>
   </g>
   <g id="patch_29">
    <path d="M 126.058342 188.638125 
L 127.629634 188.638125 
L 127.629634 74.713187 
L 126.058342 74.713187 
z
" clip-path="url(#p72f6cde606)" style="fill: #1f77b4"/>
   </g>
   <g id="patch_30">
    <path d="M 128.303044 188.638125 
L 129.874336 188.638125 
L 129.874336 75.126753 
L 128.303044 75.126753 
z
" clip-path="url(#p72f6cde606)" style="fill: #1f77b4"/>
   </g>
   <g id="patch_31">
    <path d="M 130.547746 188.638125 
L 132.119038 188.638125 
L 132.119038 75.524381 
L 130.547746 75.524381 
z
" clip-path="url(#p72f6cde606)" style="fill: #1f77b4"/>
   </g>
   <g id="patch_32">
    <path d="M 132.792448 188.638125 
L 134.36374 188.638125 
L 134.36374 75.907205 
L 132.792448 75.907205 
z
" clip-path="url(#p72f6cde606)" style="fill: #1f77b4"/>
   </g>
   <g id="patch_33">
    <path d="M 135.03715 188.638125 
L 136.608442 188.638125 
L 136.608442 76.276242 
L 135.03715 76.276242 
z
" clip-path="url(#p72f6cde606)" style="fill: #1f77b4"/>
   </g>
   <g id="patch_34">
    <path d="M 137.281852 188.638125 
L 138.853144 188.638125 
L 138.853144 76.632411 
L 137.281852 76.632411 
z
" clip-path="url(#p72f6cde606)" style="fill: #1f77b4"/>
   </g>
   <g id="patch_35">
    <path d="M 139.526554 188.638125 
L 141.097846 188.638125 
L 141.097846 76.976541 
L 139.526554 76.976541 
z
" clip-path="url(#p72f6cde606)" style="fill: #1f77b4"/>
   </g>
   <g id="patch_36">
    <path d="M 141.771256 188.638125 
L 143.342548 188.638125 
L 143.342548 77.309387 
L 141.771256 77.309387 
z
" clip-path="url(#p72f6cde606)" style="fill: #1f77b4"/>
   </g>
   <g id="patch_37">
    <path d="M 144.015958 188.638125 
L 145.58725 188.638125 
L 145.58725 77.631634 
L 144.015958 77.631634 
z
" clip-path="url(#p72f6cde606)" style="fill: #1f77b4"/>
   </g>
   <g id="patch_38">
    <path d="M 146.26066 188.638125 
L 147.831952 188.638125 
L 147.831952 77.943909 
L 146.26066 77.943909 
z
" clip-path="url(#p72f6cde606)" style="fill: #1f77b4"/>
   </g>
   <g id="patch_39">
    <path d="M 148.505362 188.638125 
L 150.076654 188.638125 
L 150.076654 78.246785 
L 148.505362 78.246785 
z
" clip-path="url(#p72f6cde606)" style="fill: #1f77b4"/>
   </g>
   <g id="patch_40">
    <path d="M 150.750064 188.638125 
L 152.321356 188.638125 
L 152.321356 78.540787 
L 150.750064 78.540787 
z
" clip-path="url(#p72f6cde606)" style="fill: #1f77b4"/>
   </g>
   <g id="patch_41">
    <path d="M 152.994766 188.638125 
L 154.566058 188.638125 
L 154.566058 78.826399 
L 152.994766 78.826399 
z
" clip-path="url(#p72f6cde606)" style="fill: #1f77b4"/>
   </g>
   <g id="patch_42">
    <path d="M 155.239468 188.638125 
L 156.81076 188.638125 
L 156.81076 79.104067 
L 155.239468 79.104067 
z
" clip-path="url(#p72f6cde606)" style="fill: #1f77b4"/>
   </g>
   <g id="patch_43">
    <path d="M 157.48417 188.638125 
L 159.055462 188.638125 
L 159.055462 79.374201 
L 157.48417 79.374201 
z
" clip-path="url(#p72f6cde606)" style="fill: #1f77b4"/>
   </g>
   <g id="patch_44">
    <path d="M 159.728872 188.638125 
L 161.300164 188.638125 
L 161.300164 79.637184 
L 159.728872 79.637184 
z
" clip-path="url(#p72f6cde606)" style="fill: #1f77b4"/>
   </g>
   <g id="patch_45">
    <path d="M 161.973574 188.638125 
L 163.544866 188.638125 
L 163.544866 79.893367 
L 161.973574 79.893367 
z
" clip-path="url(#p72f6cde606)" style="fill: #1f77b4"/>
   </g>
   <g id="patch_46">
    <path d="M 164.218276 188.638125 
L 165.789568 188.638125 
L 165.789568 80.143079 
L 164.218276 80.143079 
z
" clip-path="url(#p72f6cde606)" style="fill: #1f77b4"/>
   </g>
   <g id="patch_47">
    <path d="M 166.462978 188.638125 
L 168.03427 188.638125 
L 168.03427 80.386624 
L 166.462978 80.386624 
z
" clip-path="url(#p72f6cde606)" style="fill: #1f77b4"/>
   </g>
   <g id="patch_48">
    <path d="M 168.70768 188.638125 
L 170.278972 188.638125 
L 170.278972 80.624288 
L 168.70768 80.624288 
z
" clip-path="url(#p72f6cde606)" style="fill: #1f77b4"/>
   </g>
   <g id="patch_49">
    <path d="M 170.952383 188.638125 
L 172.523674 188.638125 
L 172.523674 80.856335 
L 170.952383 80.856335 
z
" clip-path="url(#p72f6cde606)" style="fill: #1f77b4"/>
   </g>
   <g id="patch_50">
    <path d="M 173.197085 188.638125 
L 174.768376 188.638125 
L 174.768376 81.083014 
L 173.197085 81.083014 
z
" clip-path="url(#p72f6cde606)" style="fill: #1f77b4"/>
   </g>
   <g id="patch_51">
    <path d="M 175.441787 188.638125 
L 177.013078 188.638125 
L 177.013078 81.304556 
L 175.441787 81.304556 
z
" clip-path="url(#p72f6cde606)" style="fill: #1f77b4"/>
   </g>
   <g id="patch_52">
    <path d="M 177.686489 188.638125 
L 179.25778 188.638125 
L 179.25778 81.52118 
L 177.686489 81.52118 
z
" clip-path="url(#p72f6cde606)" style="fill: #1f77b4"/>
   </g>
   <g id="patch_53">
    <path d="M 179.931191 188.638125 
L 181.502482 188.638125 
L 181.502482 81.73309 
L 179.931191 81.73309 
z
" clip-path="url(#p72f6cde606)" style="fill: #1f77b4"/>
   </g>
   <g id="patch_54">
    <path d="M 182.175893 188.638125 
L 183.747184 188.638125 
L 183.747184 81.940478 
L 182.175893 81.940478 
z
" clip-path="url(#p72f6cde606)" style="fill: #1f77b4"/>
   </g>
   <g id="patch_55">
    <path d="M 184.420595 188.638125 
L 185.991886 188.638125 
L 185.991886 82.143524 
L 184.420595 82.143524 
z
" clip-path="url(#p72f6cde606)" style="fill: #1f77b4"/>
   </g>
   <g id="patch_56">
    <path d="M 186.665297 188.638125 
L 188.236588 188.638125 
L 188.236588 82.342399 
L 186.665297 82.342399 
z
" clip-path="url(#p72f6cde606)" style="fill: #1f77b4"/>
   </g>
   <g id="patch_57">
    <path d="M 188.909999 188.638125 
L 190.48129 188.638125 
L 190.48129 82.537264 
L 188.909999 82.537264 
z
" clip-path="url(#p72f6cde606)" style="fill: #1f77b4"/>
   </g>
   <g id="patch_58">
    <path d="M 191.154701 188.638125 
L 192.725992 188.638125 
L 192.725992 82.72827 
L 191.154701 82.72827 
z
" clip-path="url(#p72f6cde606)" style="fill: #1f77b4"/>
   </g>
   <g id="patch_59">
    <path d="M 193.399403 188.638125 
L 194.970694 188.638125 
L 194.970694 82.91556 
L 193.399403 82.91556 
z
" clip-path="url(#p72f6cde606)" style="fill: #1f77b4"/>
   </g>
   <g id="patch_60">
    <path d="M 195.644105 188.638125 
L 197.215396 188.638125 
L 197.215396 83.09927 
L 195.644105 83.09927 
z
" clip-path="url(#p72f6cde606)" style="fill: #1f77b4"/>
   </g>
   <g id="patch_61">
    <path d="M 197.888807 188.638125 
L 199.460098 188.638125 
L 199.460098 83.279529 
L 197.888807 83.279529 
z
" clip-path="url(#p72f6cde606)" style="fill: #1f77b4"/>
   </g>
   <g id="patch_62">
    <path d="M 200.133509 188.638125 
L 201.7048 188.638125 
L 201.7048 83.456457 
L 200.133509 83.456457 
z
" clip-path="url(#p72f6cde606)" style="fill: #1f77b4"/>
   </g>
   <g id="patch_63">
    <path d="M 202.378211 188.638125 
L 203.949502 188.638125 
L 203.949502 83.630172 
L 202.378211 83.630172 
z
" clip-path="url(#p72f6cde606)" style="fill: #1f77b4"/>
   </g>
   <g id="patch_64">
    <path d="M 204.622913 188.638125 
L 206.194204 188.638125 
L 206.194204 83.800781 
L 204.622913 83.800781 
z
" clip-path="url(#p72f6cde606)" style="fill: #1f77b4"/>
   </g>
   <g id="patch_65">
    <path d="M 206.867615 188.638125 
L 208.438906 188.638125 
L 208.438906 83.968391 
L 206.867615 83.968391 
z
" clip-path="url(#p72f6cde606)" style="fill: #1f77b4"/>
   </g>
   <g id="patch_66">
    <path d="M 209.112317 188.638125 
L 210.683608 188.638125 
L 210.683608 84.133098 
L 209.112317 84.133098 
z
" clip-path="url(#p72f6cde606)" style="fill: #1f77b4"/>
   </g>
   <g id="patch_67">
    <path d="M 211.357019 188.638125 
L 212.92831 188.638125 
L 212.92831 84.294999 
L 211.357019 84.294999 
z
" clip-path="url(#p72f6cde606)" style="fill: #1f77b4"/>
   </g>
   <g id="patch_68">
    <path d="M 213.601721 188.638125 
L 215.173012 188.638125 
L 215.173012 84.454183 
L 213.601721 84.454183 
z
" clip-path="url(#p72f6cde606)" style="fill: #1f77b4"/>
   </g>
   <g id="patch_69">
    <path d="M 215.846423 188.638125 
L 217.417714 188.638125 
L 217.417714 84.610736 
L 215.846423 84.610736 
z
" clip-path="url(#p72f6cde606)" style="fill: #1f77b4"/>
   </g>
   <g id="patch_70">
    <path d="M 218.091125 188.638125 
L 219.662416 188.638125 
L 219.662416 84.76474 
L 218.091125 84.76474 
z
" clip-path="url(#p72f6cde606)" style="fill: #1f77b4"/>
   </g>
   <g id="patch_71">
    <path d="M 220.335827 188.638125 
L 221.907118 188.638125 
L 221.907118 84.916272 
L 220.335827 84.916272 
z
" clip-path="url(#p72f6cde606)" style="fill: #1f77b4"/>
   </g>
   <g id="patch_72">
    <path d="M 222.580529 188.638125 
L 224.15182 188.638125 
L 224.15182 85.065407 
L 222.580529 85.065407 
z
" clip-path="url(#p72f6cde606)" style="fill: #1f77b4"/>
   </g>
   <g id="patch_73">
    <path d="M 224.825231 188.638125 
L 226.396522 188.638125 
L 226.396522 85.212217 
L 224.825231 85.212217 
z
" clip-path="url(#p72f6cde606)" style="fill: #1f77b4"/>
   </g>
   <g id="patch_74">
    <path d="M 227.069933 188.638125 
L 228.641224 188.638125 
L 228.641224 85.35677 
L 227.069933 85.35677 
z
" clip-path="url(#p72f6cde606)" style="fill: #1f77b4"/>
   </g>
   <g id="patch_75">
    <path d="M 229.314635 188.638125 
L 230.885926 188.638125 
L 230.885926 85.499131 
L 229.314635 85.499131 
z
" clip-path="url(#p72f6cde606)" style="fill: #1f77b4"/>
   </g>
   <g id="patch_76">
    <path d="M 231.559337 188.638125 
L 233.130628 188.638125 
L 233.130628 85.639363 
L 231.559337 85.639363 
z
" clip-path="url(#p72f6cde606)" style="fill: #1f77b4"/>
   </g>
   <g id="patch_77">
    <path d="M 233.804039 188.638125 
L 235.375331 188.638125 
L 235.375331 85.777526 
L 233.804039 85.777526 
z
" clip-path="url(#p72f6cde606)" style="fill: #1f77b4"/>
   </g>
   <g id="patch_78">
    <path d="M 236.048741 188.638125 
L 237.620033 188.638125 
L 237.620033 85.913677 
L 236.048741 85.913677 
z
" clip-path="url(#p72f6cde606)" style="fill: #1f77b4"/>
   </g>
   <g id="patch_79">
    <path d="M 238.293443 188.638125 
L 239.864735 188.638125 
L 239.864735 86.047871 
L 238.293443 86.047871 
z
" clip-path="url(#p72f6cde606)" style="fill: #1f77b4"/>
   </g>
   <g id="patch_80">
    <path d="M 240.538145 188.638125 
L 242.109437 188.638125 
L 242.109437 86.180162 
L 240.538145 86.180162 
z
" clip-path="url(#p72f6cde606)" style="fill: #1f77b4"/>
   </g>
   <g id="patch_81">
    <path d="M 242.782847 188.638125 
L 244.354139 188.638125 
L 244.354139 86.3106 
L 242.782847 86.3106 
z
" clip-path="url(#p72f6cde606)" style="fill: #1f77b4"/>
   </g>
   <g id="patch_82">
    <path d="M 245.027549 188.638125 
L 246.598841 188.638125 
L 246.598841 86.439235 
L 245.027549 86.439235 
z
" clip-path="url(#p72f6cde606)" style="fill: #1f77b4"/>
   </g>
   <g id="patch_83">
    <path d="M 247.272251 188.638125 
L 248.843543 188.638125 
L 248.843543 86.566113 
L 247.272251 86.566113 
z
" clip-path="url(#p72f6cde606)" style="fill: #1f77b4"/>
   </g>
   <g id="patch_84">
    <path d="M 249.516953 188.638125 
L 251.088245 188.638125 
L 251.088245 86.69128 
L 249.516953 86.69128 
z
" clip-path="url(#p72f6cde606)" style="fill: #1f77b4"/>
   </g>
   <g id="patch_85">
    <path d="M 251.761655 188.638125 
L 253.332947 188.638125 
L 253.332947 86.814778 
L 251.761655 86.814778 
z
" clip-path="url(#p72f6cde606)" style="fill: #1f77b4"/>
   </g>
   <g id="patch_86">
    <path d="M 254.006357 188.638125 
L 255.577649 188.638125 
L 255.577649 86.936651 
L 254.006357 86.936651 
z
" clip-path="url(#p72f6cde606)" style="fill: #1f77b4"/>
   </g>
   <g id="patch_87">
    <path d="M 256.251059 188.638125 
L 257.822351 188.638125 
L 257.822351 87.056938 
L 256.251059 87.056938 
z
" clip-path="url(#p72f6cde606)" style="fill: #1f77b4"/>
   </g>
   <g id="patch_88">
    <path d="M 258.495761 188.638125 
L 260.067053 188.638125 
L 260.067053 87.175678 
L 258.495761 87.175678 
z
" clip-path="url(#p72f6cde606)" style="fill: #1f77b4"/>
   </g>
   <g id="patch_89">
    <path d="M 260.740463 188.638125 
L 262.311755 188.638125 
L 262.311755 87.292909 
L 260.740463 87.292909 
z
" clip-path="url(#p72f6cde606)" style="fill: #1f77b4"/>
   </g>
   <g id="patch_90">
    <path d="M 262.985165 188.638125 
L 264.556457 188.638125 
L 264.556457 87.408667 
L 262.985165 87.408667 
z
" clip-path="url(#p72f6cde606)" style="fill: #1f77b4"/>
   </g>
   <g id="patch_91">
    <path d="M 265.229867 188.638125 
L 266.801159 188.638125 
L 266.801159 87.522988 
L 265.229867 87.522988 
z
" clip-path="url(#p72f6cde606)" style="fill: #1f77b4"/>
   </g>
   <g id="patch_92">
    <path d="M 267.474569 188.638125 
L 269.045861 188.638125 
L 269.045861 87.635903 
L 267.474569 87.635903 
z
" clip-path="url(#p72f6cde606)" style="fill: #1f77b4"/>
   </g>
   <g id="patch_93">
    <path d="M 269.719271 188.638125 
L 271.290563 188.638125 
L 271.290563 87.747448 
L 269.719271 87.747448 
z
" clip-path="url(#p72f6cde606)" style="fill: #1f77b4"/>
   </g>
   <g id="patch_94">
    <path d="M 271.963973 188.638125 
L 273.535265 188.638125 
L 273.535265 87.857651 
L 271.963973 87.857651 
z
" clip-path="url(#p72f6cde606)" style="fill: #1f77b4"/>
   </g>
   <g id="patch_95">
    <path d="M 274.208675 188.638125 
L 275.779967 188.638125 
L 275.779967 87.966546 
L 274.208675 87.966546 
z
" clip-path="url(#p72f6cde606)" style="fill: #1f77b4"/>
   </g>
   <g id="patch_96">
    <path d="M 276.453377 188.638125 
L 278.024669 188.638125 
L 278.024669 88.074159 
L 276.453377 88.074159 
z
" clip-path="url(#p72f6cde606)" style="fill: #1f77b4"/>
   </g>
   <g id="patch_97">
    <path d="M 278.698079 188.638125 
L 280.269371 188.638125 
L 280.269371 88.180521 
L 278.698079 88.180521 
z
" clip-path="url(#p72f6cde606)" style="fill: #1f77b4"/>
   </g>
   <g id="patch_98">
    <path d="M 280.942782 188.638125 
L 282.514073 188.638125 
L 282.514073 88.285658 
L 280.942782 88.285658 
z
" clip-path="url(#p72f6cde606)" style="fill: #1f77b4"/>
   </g>
   <g id="patch_99">
    <path d="M 283.187484 188.638125 
L 284.758775 188.638125 
L 284.758775 88.389597 
L 283.187484 88.389597 
z
" clip-path="url(#p72f6cde606)" style="fill: #1f77b4"/>
   </g>
   <g id="patch_100">
    <path d="M 285.432186 188.638125 
L 287.003477 188.638125 
L 287.003477 88.492364 
L 285.432186 88.492364 
z
" clip-path="url(#p72f6cde606)" style="fill: #1f77b4"/>
   </g>
   <g id="patch_101">
    <path d="M 287.676888 188.638125 
L 289.248179 188.638125 
L 289.248179 88.593984 
L 287.676888 88.593984 
z
" clip-path="url(#p72f6cde606)" style="fill: #1f77b4"/>
   </g>
   <g id="patch_102">
    <path d="M 289.92159 188.638125 
L 291.492881 188.638125 
L 291.492881 88.694482 
L 289.92159 88.694482 
z
" clip-path="url(#p72f6cde606)" style="fill: #1f77b4"/>
   </g>
   <g id="matplotlib.axis_1">
    <g id="xtick_1">
     <g id="line2d_1">
      <defs>
       <path id="mf5c77d62a5" d="M 0 0 
L 0 3.5 
" style="stroke: #000000; stroke-width: 0.8"/>
      </defs>
      <g>
       <use xlink:href="#mf5c77d62a5" x="66.237033" y="188.638125" style="stroke: #000000; stroke-width: 0.8"/>
      </g>
     </g>
     <g id="text_1">
      <!-- 0 -->
      <g transform="translate(63.055783 203.236563)scale(0.1 -0.1)">
       <defs>
        <path id="DejaVuSans-30" d="M 2034 4250 
Q 1547 4250 1301 3770 
Q 1056 3291 1056 2328 
Q 1056 1369 1301 889 
Q 1547 409 2034 409 
Q 2525 409 2770 889 
Q 3016 1369 3016 2328 
Q 3016 3291 2770 3770 
Q 2525 4250 2034 4250 
z
M 2034 4750 
Q 2819 4750 3233 4129 
Q 3647 3509 3647 2328 
Q 3647 1150 3233 529 
Q 2819 -91 2034 -91 
Q 1250 -91 836 529 
Q 422 1150 422 2328 
Q 422 3509 836 4129 
Q 1250 4750 2034 4750 
z
" transform="scale(0.015625)"/>
       </defs>
       <use xlink:href="#DejaVuSans-30"/>
      </g>
     </g>
    </g>
    <g id="xtick_2">
     <g id="line2d_2">
      <g>
       <use xlink:href="#mf5c77d62a5" x="111.131074" y="188.638125" style="stroke: #000000; stroke-width: 0.8"/>
      </g>
     </g>
     <g id="text_2">
      <!-- 20 -->
      <g transform="translate(104.768574 203.236563)scale(0.1 -0.1)">
       <defs>
        <path id="DejaVuSans-32" d="M 1228 531 
L 3431 531 
L 3431 0 
L 469 0 
L 469 531 
Q 828 903 1448 1529 
Q 2069 2156 2228 2338 
Q 2531 2678 2651 2914 
Q 2772 3150 2772 3378 
Q 2772 3750 2511 3984 
Q 2250 4219 1831 4219 
Q 1534 4219 1204 4116 
Q 875 4013 500 3803 
L 500 4441 
Q 881 4594 1212 4672 
Q 1544 4750 1819 4750 
Q 2544 4750 2975 4387 
Q 3406 4025 3406 3419 
Q 3406 3131 3298 2873 
Q 3191 2616 2906 2266 
Q 2828 2175 2409 1742 
Q 1991 1309 1228 531 
z
" transform="scale(0.015625)"/>
       </defs>
       <use xlink:href="#DejaVuSans-32"/>
       <use xlink:href="#DejaVuSans-30" x="63.623047"/>
      </g>
     </g>
    </g>
    <g id="xtick_3">
     <g id="line2d_3">
      <g>
       <use xlink:href="#mf5c77d62a5" x="156.025114" y="188.638125" style="stroke: #000000; stroke-width: 0.8"/>
      </g>
     </g>
     <g id="text_3">
      <!-- 40 -->
      <g transform="translate(149.662614 203.236563)scale(0.1 -0.1)">
       <defs>
        <path id="DejaVuSans-34" d="M 2419 4116 
L 825 1625 
L 2419 1625 
L 2419 4116 
z
M 2253 4666 
L 3047 4666 
L 3047 1625 
L 3713 1625 
L 3713 1100 
L 3047 1100 
L 3047 0 
L 2419 0 
L 2419 1100 
L 313 1100 
L 313 1709 
L 2253 4666 
z
" transform="scale(0.015625)"/>
       </defs>
       <use xlink:href="#DejaVuSans-34"/>
       <use xlink:href="#DejaVuSans-30" x="63.623047"/>
      </g>
     </g>
    </g>
    <g id="xtick_4">
     <g id="line2d_4">
      <g>
       <use xlink:href="#mf5c77d62a5" x="200.919154" y="188.638125" style="stroke: #000000; stroke-width: 0.8"/>
      </g>
     </g>
     <g id="text_4">
      <!-- 60 -->
      <g transform="translate(194.556654 203.236563)scale(0.1 -0.1)">
       <defs>
        <path id="DejaVuSans-36" d="M 2113 2584 
Q 1688 2584 1439 2293 
Q 1191 2003 1191 1497 
Q 1191 994 1439 701 
Q 1688 409 2113 409 
Q 2538 409 2786 701 
Q 3034 994 3034 1497 
Q 3034 2003 2786 2293 
Q 2538 2584 2113 2584 
z
M 3366 4563 
L 3366 3988 
Q 3128 4100 2886 4159 
Q 2644 4219 2406 4219 
Q 1781 4219 1451 3797 
Q 1122 3375 1075 2522 
Q 1259 2794 1537 2939 
Q 1816 3084 2150 3084 
Q 2853 3084 3261 2657 
Q 3669 2231 3669 1497 
Q 3669 778 3244 343 
Q 2819 -91 2113 -91 
Q 1303 -91 875 529 
Q 447 1150 447 2328 
Q 447 3434 972 4092 
Q 1497 4750 2381 4750 
Q 2619 4750 2861 4703 
Q 3103 4656 3366 4563 
z
" transform="scale(0.015625)"/>
       </defs>
       <use xlink:href="#DejaVuSans-36"/>
       <use xlink:href="#DejaVuSans-30" x="63.623047"/>
      </g>
     </g>
    </g>
    <g id="xtick_5">
     <g id="line2d_5">
      <g>
       <use xlink:href="#mf5c77d62a5" x="245.813195" y="188.638125" style="stroke: #000000; stroke-width: 0.8"/>
      </g>
     </g>
     <g id="text_5">
      <!-- 80 -->
      <g transform="translate(239.450695 203.236563)scale(0.1 -0.1)">
       <defs>
        <path id="DejaVuSans-38" d="M 2034 2216 
Q 1584 2216 1326 1975 
Q 1069 1734 1069 1313 
Q 1069 891 1326 650 
Q 1584 409 2034 409 
Q 2484 409 2743 651 
Q 3003 894 3003 1313 
Q 3003 1734 2745 1975 
Q 2488 2216 2034 2216 
z
M 1403 2484 
Q 997 2584 770 2862 
Q 544 3141 544 3541 
Q 544 4100 942 4425 
Q 1341 4750 2034 4750 
Q 2731 4750 3128 4425 
Q 3525 4100 3525 3541 
Q 3525 3141 3298 2862 
Q 3072 2584 2669 2484 
Q 3125 2378 3379 2068 
Q 3634 1759 3634 1313 
Q 3634 634 3220 271 
Q 2806 -91 2034 -91 
Q 1263 -91 848 271 
Q 434 634 434 1313 
Q 434 1759 690 2068 
Q 947 2378 1403 2484 
z
M 1172 3481 
Q 1172 3119 1398 2916 
Q 1625 2713 2034 2713 
Q 2441 2713 2670 2916 
Q 2900 3119 2900 3481 
Q 2900 3844 2670 4047 
Q 2441 4250 2034 4250 
Q 1625 4250 1398 4047 
Q 1172 3844 1172 3481 
z
" transform="scale(0.015625)"/>
       </defs>
       <use xlink:href="#DejaVuSans-38"/>
       <use xlink:href="#DejaVuSans-30" x="63.623047"/>
      </g>
     </g>
    </g>
    <g id="xtick_6">
     <g id="line2d_6">
      <g>
       <use xlink:href="#mf5c77d62a5" x="290.707235" y="188.638125" style="stroke: #000000; stroke-width: 0.8"/>
      </g>
     </g>
     <g id="text_6">
      <!-- 100 -->
      <g transform="translate(281.163485 203.236563)scale(0.1 -0.1)">
       <defs>
        <path id="DejaVuSans-31" d="M 794 531 
L 1825 531 
L 1825 4091 
L 703 3866 
L 703 4441 
L 1819 4666 
L 2450 4666 
L 2450 531 
L 3481 531 
L 3481 0 
L 794 0 
L 794 531 
z
" transform="scale(0.015625)"/>
       </defs>
       <use xlink:href="#DejaVuSans-31"/>
       <use xlink:href="#DejaVuSans-30" x="63.623047"/>
       <use xlink:href="#DejaVuSans-30" x="127.246094"/>
      </g>
     </g>
    </g>
    <g id="text_7">
     <!-- Index $i$ of $\sigma_i$ -->
     <g transform="translate(150.444485 216.914688)scale(0.1 -0.1)">
      <defs>
       <path id="DejaVuSans-49" d="M 628 4666 
L 1259 4666 
L 1259 0 
L 628 0 
L 628 4666 
z
" transform="scale(0.015625)"/>
       <path id="DejaVuSans-6e" d="M 3513 2113 
L 3513 0 
L 2938 0 
L 2938 2094 
Q 2938 2591 2744 2837 
Q 2550 3084 2163 3084 
Q 1697 3084 1428 2787 
Q 1159 2491 1159 1978 
L 1159 0 
L 581 0 
L 581 3500 
L 1159 3500 
L 1159 2956 
Q 1366 3272 1645 3428 
Q 1925 3584 2291 3584 
Q 2894 3584 3203 3211 
Q 3513 2838 3513 2113 
z
" transform="scale(0.015625)"/>
       <path id="DejaVuSans-64" d="M 2906 2969 
L 2906 4863 
L 3481 4863 
L 3481 0 
L 2906 0 
L 2906 525 
Q 2725 213 2448 61 
Q 2172 -91 1784 -91 
Q 1150 -91 751 415 
Q 353 922 353 1747 
Q 353 2572 751 3078 
Q 1150 3584 1784 3584 
Q 2172 3584 2448 3432 
Q 2725 3281 2906 2969 
z
M 947 1747 
Q 947 1113 1208 752 
Q 1469 391 1925 391 
Q 2381 391 2643 752 
Q 2906 1113 2906 1747 
Q 2906 2381 2643 2742 
Q 2381 3103 1925 3103 
Q 1469 3103 1208 2742 
Q 947 2381 947 1747 
z
" transform="scale(0.015625)"/>
       <path id="DejaVuSans-65" d="M 3597 1894 
L 3597 1613 
L 953 1613 
Q 991 1019 1311 708 
Q 1631 397 2203 397 
Q 2534 397 2845 478 
Q 3156 559 3463 722 
L 3463 178 
Q 3153 47 2828 -22 
Q 2503 -91 2169 -91 
Q 1331 -91 842 396 
Q 353 884 353 1716 
Q 353 2575 817 3079 
Q 1281 3584 2069 3584 
Q 2775 3584 3186 3129 
Q 3597 2675 3597 1894 
z
M 3022 2063 
Q 3016 2534 2758 2815 
Q 2500 3097 2075 3097 
Q 1594 3097 1305 2825 
Q 1016 2553 972 2059 
L 3022 2063 
z
" transform="scale(0.015625)"/>
       <path id="DejaVuSans-78" d="M 3513 3500 
L 2247 1797 
L 3578 0 
L 2900 0 
L 1881 1375 
L 863 0 
L 184 0 
L 1544 1831 
L 300 3500 
L 978 3500 
L 1906 2253 
L 2834 3500 
L 3513 3500 
z
" transform="scale(0.015625)"/>
       <path id="DejaVuSans-20" transform="scale(0.015625)"/>
       <path id="DejaVuSans-Oblique-69" d="M 1172 4863 
L 1747 4863 
L 1606 4134 
L 1031 4134 
L 1172 4863 
z
M 909 3500 
L 1484 3500 
L 800 0 
L 225 0 
L 909 3500 
z
" transform="scale(0.015625)"/>
       <path id="DejaVuSans-6f" d="M 1959 3097 
Q 1497 3097 1228 2736 
Q 959 2375 959 1747 
Q 959 1119 1226 758 
Q 1494 397 1959 397 
Q 2419 397 2687 759 
Q 2956 1122 2956 1747 
Q 2956 2369 2687 2733 
Q 2419 3097 1959 3097 
z
M 1959 3584 
Q 2709 3584 3137 3096 
Q 3566 2609 3566 1747 
Q 3566 888 3137 398 
Q 2709 -91 1959 -91 
Q 1206 -91 779 398 
Q 353 888 353 1747 
Q 353 2609 779 3096 
Q 1206 3584 1959 3584 
z
" transform="scale(0.015625)"/>
       <path id="DejaVuSans-66" d="M 2375 4863 
L 2375 4384 
L 1825 4384 
Q 1516 4384 1395 4259 
Q 1275 4134 1275 3809 
L 1275 3500 
L 2222 3500 
L 2222 3053 
L 1275 3053 
L 1275 0 
L 697 0 
L 697 3053 
L 147 3053 
L 147 3500 
L 697 3500 
L 697 3744 
Q 697 4328 969 4595 
Q 1241 4863 1831 4863 
L 2375 4863 
z
" transform="scale(0.015625)"/>
       <path id="DejaVuSans-Oblique-3c3" d="M 2219 3044 
Q 1744 3044 1422 2700 
Q 1081 2341 969 1747 
Q 844 1119 1044 756 
Q 1241 397 1706 397 
Q 2166 397 2503 759 
Q 2844 1122 2966 1747 
Q 3075 2319 2881 2700 
Q 2700 3044 2219 3044 
z
M 2309 3503 
L 4219 3500 
L 4106 2925 
L 3463 2925 
Q 3706 2438 3575 1747 
Q 3406 888 2884 400 
Q 2359 -91 1609 -91 
Q 856 -91 525 400 
Q 194 888 363 1747 
Q 528 2609 1050 3097 
Q 1484 3503 2309 3503 
z
" transform="scale(0.015625)"/>
      </defs>
      <use xlink:href="#DejaVuSans-49" transform="translate(0 0.015625)"/>
      <use xlink:href="#DejaVuSans-6e" transform="translate(29.492188 0.015625)"/>
      <use xlink:href="#DejaVuSans-64" transform="translate(92.871094 0.015625)"/>
      <use xlink:href="#DejaVuSans-65" transform="translate(156.347656 0.015625)"/>
      <use xlink:href="#DejaVuSans-78" transform="translate(217.871094 0.015625)"/>
      <use xlink:href="#DejaVuSans-20" transform="translate(277.050781 0.015625)"/>
      <use xlink:href="#DejaVuSans-Oblique-69" transform="translate(308.837891 0.015625)"/>
      <use xlink:href="#DejaVuSans-20" transform="translate(336.621094 0.015625)"/>
      <use xlink:href="#DejaVuSans-6f" transform="translate(368.408203 0.015625)"/>
      <use xlink:href="#DejaVuSans-66" transform="translate(429.589844 0.015625)"/>
      <use xlink:href="#DejaVuSans-20" transform="translate(464.794922 0.015625)"/>
      <use xlink:href="#DejaVuSans-Oblique-3c3" transform="translate(496.582031 0.015625)"/>
      <use xlink:href="#DejaVuSans-Oblique-69" transform="translate(559.960938 -16.390625)scale(0.7)"/>
     </g>
    </g>
   </g>
   <g id="matplotlib.axis_2">
    <g id="ytick_1">
     <g id="line2d_7">
      <defs>
       <path id="m9487d794b4" d="M 0 0 
L -3.5 0 
" style="stroke: #000000; stroke-width: 0.8"/>
      </defs>
      <g>
       <use xlink:href="#m9487d794b4" x="56.50625" y="188.638125" style="stroke: #000000; stroke-width: 0.8"/>
      </g>
     </g>
     <g id="text_8">
      <!-- 0.000 -->
      <g transform="translate(20.878125 192.437344)scale(0.1 -0.1)">
       <defs>
        <path id="DejaVuSans-2e" d="M 684 794 
L 1344 794 
L 1344 0 
L 684 0 
L 684 794 
z
" transform="scale(0.015625)"/>
       </defs>
       <use xlink:href="#DejaVuSans-30"/>
       <use xlink:href="#DejaVuSans-2e" x="63.623047"/>
       <use xlink:href="#DejaVuSans-30" x="95.410156"/>
       <use xlink:href="#DejaVuSans-30" x="159.033203"/>
       <use xlink:href="#DejaVuSans-30" x="222.65625"/>
      </g>
     </g>
    </g>
    <g id="ytick_2">
     <g id="line2d_8">
      <g>
       <use xlink:href="#m9487d794b4" x="56.50625" y="166.519542" style="stroke: #000000; stroke-width: 0.8"/>
      </g>
     </g>
     <g id="text_9">
      <!-- 0.002 -->
      <g transform="translate(20.878125 170.318761)scale(0.1 -0.1)">
       <use xlink:href="#DejaVuSans-30"/>
       <use xlink:href="#DejaVuSans-2e" x="63.623047"/>
       <use xlink:href="#DejaVuSans-30" x="95.410156"/>
       <use xlink:href="#DejaVuSans-30" x="159.033203"/>
       <use xlink:href="#DejaVuSans-32" x="222.65625"/>
      </g>
     </g>
    </g>
    <g id="ytick_3">
     <g id="line2d_9">
      <g>
       <use xlink:href="#m9487d794b4" x="56.50625" y="144.400959" style="stroke: #000000; stroke-width: 0.8"/>
      </g>
     </g>
     <g id="text_10">
      <!-- 0.004 -->
      <g transform="translate(20.878125 148.200177)scale(0.1 -0.1)">
       <use xlink:href="#DejaVuSans-30"/>
       <use xlink:href="#DejaVuSans-2e" x="63.623047"/>
       <use xlink:href="#DejaVuSans-30" x="95.410156"/>
       <use xlink:href="#DejaVuSans-30" x="159.033203"/>
       <use xlink:href="#DejaVuSans-34" x="222.65625"/>
      </g>
     </g>
    </g>
    <g id="ytick_4">
     <g id="line2d_10">
      <g>
       <use xlink:href="#m9487d794b4" x="56.50625" y="122.282375" style="stroke: #000000; stroke-width: 0.8"/>
      </g>
     </g>
     <g id="text_11">
      <!-- 0.006 -->
      <g transform="translate(20.878125 126.081594)scale(0.1 -0.1)">
       <use xlink:href="#DejaVuSans-30"/>
       <use xlink:href="#DejaVuSans-2e" x="63.623047"/>
       <use xlink:href="#DejaVuSans-30" x="95.410156"/>
       <use xlink:href="#DejaVuSans-30" x="159.033203"/>
       <use xlink:href="#DejaVuSans-36" x="222.65625"/>
      </g>
     </g>
    </g>
    <g id="ytick_5">
     <g id="line2d_11">
      <g>
       <use xlink:href="#m9487d794b4" x="56.50625" y="100.163792" style="stroke: #000000; stroke-width: 0.8"/>
      </g>
     </g>
     <g id="text_12">
      <!-- 0.008 -->
      <g transform="translate(20.878125 103.963011)scale(0.1 -0.1)">
       <use xlink:href="#DejaVuSans-30"/>
       <use xlink:href="#DejaVuSans-2e" x="63.623047"/>
       <use xlink:href="#DejaVuSans-30" x="95.410156"/>
       <use xlink:href="#DejaVuSans-30" x="159.033203"/>
       <use xlink:href="#DejaVuSans-38" x="222.65625"/>
      </g>
     </g>
    </g>
    <g id="ytick_6">
     <g id="line2d_12">
      <g>
       <use xlink:href="#m9487d794b4" x="56.50625" y="78.045209" style="stroke: #000000; stroke-width: 0.8"/>
      </g>
     </g>
     <g id="text_13">
      <!-- 0.010 -->
      <g transform="translate(20.878125 81.844428)scale(0.1 -0.1)">
       <use xlink:href="#DejaVuSans-30"/>
       <use xlink:href="#DejaVuSans-2e" x="63.623047"/>
       <use xlink:href="#DejaVuSans-30" x="95.410156"/>
       <use xlink:href="#DejaVuSans-31" x="159.033203"/>
       <use xlink:href="#DejaVuSans-30" x="222.65625"/>
      </g>
     </g>
    </g>
    <g id="ytick_7">
     <g id="line2d_13">
      <g>
       <use xlink:href="#m9487d794b4" x="56.50625" y="55.926626" style="stroke: #000000; stroke-width: 0.8"/>
      </g>
     </g>
     <g id="text_14">
      <!-- 0.012 -->
      <g transform="translate(20.878125 59.725844)scale(0.1 -0.1)">
       <use xlink:href="#DejaVuSans-30"/>
       <use xlink:href="#DejaVuSans-2e" x="63.623047"/>
       <use xlink:href="#DejaVuSans-30" x="95.410156"/>
       <use xlink:href="#DejaVuSans-31" x="159.033203"/>
       <use xlink:href="#DejaVuSans-32" x="222.65625"/>
      </g>
     </g>
    </g>
    <g id="ytick_8">
     <g id="line2d_14">
      <g>
       <use xlink:href="#m9487d794b4" x="56.50625" y="33.808042" style="stroke: #000000; stroke-width: 0.8"/>
      </g>
     </g>
     <g id="text_15">
      <!-- 0.014 -->
      <g transform="translate(20.878125 37.607261)scale(0.1 -0.1)">
       <use xlink:href="#DejaVuSans-30"/>
       <use xlink:href="#DejaVuSans-2e" x="63.623047"/>
       <use xlink:href="#DejaVuSans-30" x="95.410156"/>
       <use xlink:href="#DejaVuSans-31" x="159.033203"/>
       <use xlink:href="#DejaVuSans-34" x="222.65625"/>
      </g>
     </g>
    </g>
    <g id="text_16">
     <!-- Contribution of $\sigma_i$ -->
     <g transform="translate(14.798438 148.828125)rotate(-90)scale(0.1 -0.1)">
      <defs>
       <path id="DejaVuSans-43" d="M 4122 4306 
L 4122 3641 
Q 3803 3938 3442 4084 
Q 3081 4231 2675 4231 
Q 1875 4231 1450 3742 
Q 1025 3253 1025 2328 
Q 1025 1406 1450 917 
Q 1875 428 2675 428 
Q 3081 428 3442 575 
Q 3803 722 4122 1019 
L 4122 359 
Q 3791 134 3420 21 
Q 3050 -91 2638 -91 
Q 1578 -91 968 557 
Q 359 1206 359 2328 
Q 359 3453 968 4101 
Q 1578 4750 2638 4750 
Q 3056 4750 3426 4639 
Q 3797 4528 4122 4306 
z
" transform="scale(0.015625)"/>
       <path id="DejaVuSans-74" d="M 1172 4494 
L 1172 3500 
L 2356 3500 
L 2356 3053 
L 1172 3053 
L 1172 1153 
Q 1172 725 1289 603 
Q 1406 481 1766 481 
L 2356 481 
L 2356 0 
L 1766 0 
Q 1100 0 847 248 
Q 594 497 594 1153 
L 594 3053 
L 172 3053 
L 172 3500 
L 594 3500 
L 594 4494 
L 1172 4494 
z
" transform="scale(0.015625)"/>
       <path id="DejaVuSans-72" d="M 2631 2963 
Q 2534 3019 2420 3045 
Q 2306 3072 2169 3072 
Q 1681 3072 1420 2755 
Q 1159 2438 1159 1844 
L 1159 0 
L 581 0 
L 581 3500 
L 1159 3500 
L 1159 2956 
Q 1341 3275 1631 3429 
Q 1922 3584 2338 3584 
Q 2397 3584 2469 3576 
Q 2541 3569 2628 3553 
L 2631 2963 
z
" transform="scale(0.015625)"/>
       <path id="DejaVuSans-69" d="M 603 3500 
L 1178 3500 
L 1178 0 
L 603 0 
L 603 3500 
z
M 603 4863 
L 1178 4863 
L 1178 4134 
L 603 4134 
L 603 4863 
z
" transform="scale(0.015625)"/>
       <path id="DejaVuSans-62" d="M 3116 1747 
Q 3116 2381 2855 2742 
Q 2594 3103 2138 3103 
Q 1681 3103 1420 2742 
Q 1159 2381 1159 1747 
Q 1159 1113 1420 752 
Q 1681 391 2138 391 
Q 2594 391 2855 752 
Q 3116 1113 3116 1747 
z
M 1159 2969 
Q 1341 3281 1617 3432 
Q 1894 3584 2278 3584 
Q 2916 3584 3314 3078 
Q 3713 2572 3713 1747 
Q 3713 922 3314 415 
Q 2916 -91 2278 -91 
Q 1894 -91 1617 61 
Q 1341 213 1159 525 
L 1159 0 
L 581 0 
L 581 4863 
L 1159 4863 
L 1159 2969 
z
" transform="scale(0.015625)"/>
       <path id="DejaVuSans-75" d="M 544 1381 
L 544 3500 
L 1119 3500 
L 1119 1403 
Q 1119 906 1312 657 
Q 1506 409 1894 409 
Q 2359 409 2629 706 
Q 2900 1003 2900 1516 
L 2900 3500 
L 3475 3500 
L 3475 0 
L 2900 0 
L 2900 538 
Q 2691 219 2414 64 
Q 2138 -91 1772 -91 
Q 1169 -91 856 284 
Q 544 659 544 1381 
z
M 1991 3584 
L 1991 3584 
z
" transform="scale(0.015625)"/>
      </defs>
      <use xlink:href="#DejaVuSans-43" transform="translate(0 0.015625)"/>
      <use xlink:href="#DejaVuSans-6f" transform="translate(69.824219 0.015625)"/>
      <use xlink:href="#DejaVuSans-6e" transform="translate(131.005859 0.015625)"/>
      <use xlink:href="#DejaVuSans-74" transform="translate(194.384766 0.015625)"/>
      <use xlink:href="#DejaVuSans-72" transform="translate(233.59375 0.015625)"/>
      <use xlink:href="#DejaVuSans-69" transform="translate(274.707031 0.015625)"/>
      <use xlink:href="#DejaVuSans-62" transform="translate(302.490234 0.015625)"/>
      <use xlink:href="#DejaVuSans-75" transform="translate(365.966797 0.015625)"/>
      <use xlink:href="#DejaVuSans-74" transform="translate(429.345703 0.015625)"/>
      <use xlink:href="#DejaVuSans-69" transform="translate(468.554688 0.015625)"/>
      <use xlink:href="#DejaVuSans-6f" transform="translate(496.337891 0.015625)"/>
      <use xlink:href="#DejaVuSans-6e" transform="translate(557.519531 0.015625)"/>
      <use xlink:href="#DejaVuSans-20" transform="translate(620.898438 0.015625)"/>
      <use xlink:href="#DejaVuSans-6f" transform="translate(652.685547 0.015625)"/>
      <use xlink:href="#DejaVuSans-66" transform="translate(713.867188 0.015625)"/>
      <use xlink:href="#DejaVuSans-20" transform="translate(749.072266 0.015625)"/>
      <use xlink:href="#DejaVuSans-Oblique-3c3" transform="translate(780.859375 0.015625)"/>
      <use xlink:href="#DejaVuSans-Oblique-69" transform="translate(844.238281 -16.390625)scale(0.7)"/>
     </g>
    </g>
   </g>
   <g id="patch_103">
    <path d="M 56.50625 188.638125 
L 56.50625 22.318125 
" style="fill: none; stroke: #000000; stroke-width: 0.8; stroke-linejoin: miter; stroke-linecap: square"/>
   </g>
   <g id="patch_104">
    <path d="M 302.682721 188.638125 
L 302.682721 22.318125 
" style="fill: none; stroke: #000000; stroke-width: 0.8; stroke-linejoin: miter; stroke-linecap: square"/>
   </g>
   <g id="patch_105">
    <path d="M 56.50625 188.638125 
L 302.682721 188.638125 
" style="fill: none; stroke: #000000; stroke-width: 0.8; stroke-linejoin: miter; stroke-linecap: square"/>
   </g>
   <g id="patch_106">
    <path d="M 56.50625 22.318125 
L 302.682721 22.318125 
" style="fill: none; stroke: #000000; stroke-width: 0.8; stroke-linejoin: miter; stroke-linecap: square"/>
   </g>
   <g id="text_17">
    <!-- $\alpha = 0.1$ -->
    <g transform="translate(158.714485 16.318125)scale(0.12 -0.12)">
     <defs>
      <path id="DejaVuSans-Oblique-3b1" d="M 2619 1628 
L 2622 2350 
Q 2625 3088 2069 3091 
Q 1653 3094 1394 2747 
Q 1069 2319 959 1747 
Q 825 1059 994 731 
Q 1169 397 1547 397 
Q 1966 397 2319 1063 
L 2619 1628 
z
M 2166 3578 
Q 3141 3594 3128 2584 
Q 3128 2584 3616 3500 
L 4128 3500 
L 3119 1603 
L 3109 919 
Q 3109 766 3194 638 
Q 3291 488 3391 488 
L 3669 488 
L 3575 0 
L 3228 0 
Q 2934 0 2722 263 
Q 2622 394 2619 669 
Q 2416 334 2066 50 
Q 1900 -81 1453 -78 
Q 722 -72 456 397 
Q 184 884 353 1747 
Q 534 2675 1009 3097 
Q 1544 3569 2166 3578 
z
" transform="scale(0.015625)"/>
      <path id="DejaVuSans-3d" d="M 678 2906 
L 4684 2906 
L 4684 2381 
L 678 2381 
L 678 2906 
z
M 678 1631 
L 4684 1631 
L 4684 1100 
L 678 1100 
L 678 1631 
z
" transform="scale(0.015625)"/>
     </defs>
     <use xlink:href="#DejaVuSans-Oblique-3b1" transform="translate(0 0.78125)"/>
     <use xlink:href="#DejaVuSans-3d" transform="translate(85.400391 0.78125)"/>
     <use xlink:href="#DejaVuSans-30" transform="translate(188.671875 0.78125)"/>
     <use xlink:href="#DejaVuSans-2e" transform="translate(252.294922 0.78125)"/>
     <use xlink:href="#DejaVuSans-31" transform="translate(284.082031 0.78125)"/>
    </g>
   </g>
  </g>
  <g id="axes_2">
   <g id="patch_107">
    <path d="M 351.918015 188.638125 
L 598.094485 188.638125 
L 598.094485 22.318125 
L 351.918015 22.318125 
z
" style="fill: #ffffff"/>
   </g>
   <g id="patch_108">
    <path d="M 363.107854 188.638125 
L 364.679146 188.638125 
L 364.679146 30.238125 
L 363.107854 30.238125 
z
" clip-path="url(#pbbfcc6f41c)" style="fill: #1f77b4"/>
   </g>
   <g id="patch_109">
    <path d="M 365.352556 188.638125 
L 366.923848 188.638125 
L 366.923848 109.438125 
L 365.352556 109.438125 
z
" clip-path="url(#pbbfcc6f41c)" style="fill: #1f77b4"/>
   </g>
   <g id="patch_110">
    <path d="M 367.597258 188.638125 
L 369.16855 188.638125 
L 369.16855 135.838125 
L 367.597258 135.838125 
z
" clip-path="url(#pbbfcc6f41c)" style="fill: #1f77b4"/>
   </g>
   <g id="patch_111">
    <path d="M 369.84196 188.638125 
L 371.413252 188.638125 
L 371.413252 149.038125 
L 369.84196 149.038125 
z
" clip-path="url(#pbbfcc6f41c)" style="fill: #1f77b4"/>
   </g>
   <g id="patch_112">
    <path d="M 372.086662 188.638125 
L 373.657954 188.638125 
L 373.657954 156.958125 
L 372.086662 156.958125 
z
" clip-path="url(#pbbfcc6f41c)" style="fill: #1f77b4"/>
   </g>
   <g id="patch_113">
    <path d="M 374.331364 188.638125 
L 375.902656 188.638125 
L 375.902656 162.238125 
L 374.331364 162.238125 
z
" clip-path="url(#pbbfcc6f41c)" style="fill: #1f77b4"/>
   </g>
   <g id="patch_114">
    <path d="M 376.576066 188.638125 
L 378.147358 188.638125 
L 378.147358 166.009554 
L 376.576066 166.009554 
z
" clip-path="url(#pbbfcc6f41c)" style="fill: #1f77b4"/>
   </g>
   <g id="patch_115">
    <path d="M 378.820768 188.638125 
L 380.39206 188.638125 
L 380.39206 168.838125 
L 378.820768 168.838125 
z
" clip-path="url(#pbbfcc6f41c)" style="fill: #1f77b4"/>
   </g>
   <g id="patch_116">
    <path d="M 381.06547 188.638125 
L 382.636762 188.638125 
L 382.636762 171.038125 
L 381.06547 171.038125 
z
" clip-path="url(#pbbfcc6f41c)" style="fill: #1f77b4"/>
   </g>
   <g id="patch_117">
    <path d="M 383.310172 188.638125 
L 384.881464 188.638125 
L 384.881464 172.798125 
L 383.310172 172.798125 
z
" clip-path="url(#pbbfcc6f41c)" style="fill: #1f77b4"/>
   </g>
   <g id="patch_118">
    <path d="M 385.554874 188.638125 
L 387.126166 188.638125 
L 387.126166 174.238125 
L 385.554874 174.238125 
z
" clip-path="url(#pbbfcc6f41c)" style="fill: #1f77b4"/>
   </g>
   <g id="patch_119">
    <path d="M 387.799577 188.638125 
L 389.370868 188.638125 
L 389.370868 175.438125 
L 387.799577 175.438125 
z
" clip-path="url(#pbbfcc6f41c)" style="fill: #1f77b4"/>
   </g>
   <g id="patch_120">
    <path d="M 390.044279 188.638125 
L 391.61557 188.638125 
L 391.61557 176.45351 
L 390.044279 176.45351 
z
" clip-path="url(#pbbfcc6f41c)" style="fill: #1f77b4"/>
   </g>
   <g id="patch_121">
    <path d="M 392.288981 188.638125 
L 393.860272 188.638125 
L 393.860272 177.323839 
L 392.288981 177.323839 
z
" clip-path="url(#pbbfcc6f41c)" style="fill: #1f77b4"/>
   </g>
   <g id="patch_122">
    <path d="M 394.533683 188.638125 
L 396.104974 188.638125 
L 396.104974 178.078125 
L 394.533683 178.078125 
z
" clip-path="url(#pbbfcc6f41c)" style="fill: #1f77b4"/>
   </g>
   <g id="patch_123">
    <path d="M 396.778385 188.638125 
L 398.349676 188.638125 
L 398.349676 178.738125 
L 396.778385 178.738125 
z
" clip-path="url(#pbbfcc6f41c)" style="fill: #1f77b4"/>
   </g>
   <g id="patch_124">
    <path d="M 399.023087 188.638125 
L 400.594378 188.638125 
L 400.594378 179.320478 
L 399.023087 179.320478 
z
" clip-path="url(#pbbfcc6f41c)" style="fill: #1f77b4"/>
   </g>
   <g id="patch_125">
    <path d="M 401.267789 188.638125 
L 402.83908 188.638125 
L 402.83908 179.838125 
L 401.267789 179.838125 
z
" clip-path="url(#pbbfcc6f41c)" style="fill: #1f77b4"/>
   </g>
   <g id="patch_126">
    <path d="M 403.512491 188.638125 
L 405.083782 188.638125 
L 405.083782 180.301283 
L 403.512491 180.301283 
z
" clip-path="url(#pbbfcc6f41c)" style="fill: #1f77b4"/>
   </g>
   <g id="patch_127">
    <path d="M 405.757193 188.638125 
L 407.328484 188.638125 
L 407.328484 180.718125 
L 405.757193 180.718125 
z
" clip-path="url(#pbbfcc6f41c)" style="fill: #1f77b4"/>
   </g>
   <g id="patch_128">
    <path d="M 408.001895 188.638125 
L 409.573186 188.638125 
L 409.573186 181.095268 
L 408.001895 181.095268 
z
" clip-path="url(#pbbfcc6f41c)" style="fill: #1f77b4"/>
   </g>
   <g id="patch_129">
    <path d="M 410.246597 188.638125 
L 411.817888 188.638125 
L 411.817888 181.438125 
L 410.246597 181.438125 
z
" clip-path="url(#pbbfcc6f41c)" style="fill: #1f77b4"/>
   </g>
   <g id="patch_130">
    <path d="M 412.491299 188.638125 
L 414.06259 188.638125 
L 414.06259 181.751168 
L 412.491299 181.751168 
z
" clip-path="url(#pbbfcc6f41c)" style="fill: #1f77b4"/>
   </g>
   <g id="patch_131">
    <path d="M 414.736001 188.638125 
L 416.307292 188.638125 
L 416.307292 182.038125 
L 414.736001 182.038125 
z
" clip-path="url(#pbbfcc6f41c)" style="fill: #1f77b4"/>
   </g>
   <g id="patch_132">
    <path d="M 416.980703 188.638125 
L 418.551994 188.638125 
L 418.551994 182.302125 
L 416.980703 182.302125 
z
" clip-path="url(#pbbfcc6f41c)" style="fill: #1f77b4"/>
   </g>
   <g id="patch_133">
    <path d="M 419.225405 188.638125 
L 420.796696 188.638125 
L 420.796696 182.545817 
L 419.225405 182.545817 
z
" clip-path="url(#pbbfcc6f41c)" style="fill: #1f77b4"/>
   </g>
   <g id="patch_134">
    <path d="M 421.470107 188.638125 
L 423.041398 188.638125 
L 423.041398 182.771458 
L 421.470107 182.771458 
z
" clip-path="url(#pbbfcc6f41c)" style="fill: #1f77b4"/>
   </g>
   <g id="patch_135">
    <path d="M 423.714809 188.638125 
L 425.2861 188.638125 
L 425.2861 182.980982 
L 423.714809 182.980982 
z
" clip-path="url(#pbbfcc6f41c)" style="fill: #1f77b4"/>
   </g>
   <g id="patch_136">
    <path d="M 425.959511 188.638125 
L 427.530802 188.638125 
L 427.530802 183.176056 
L 425.959511 183.176056 
z
" clip-path="url(#pbbfcc6f41c)" style="fill: #1f77b4"/>
   </g>
   <g id="patch_137">
    <path d="M 428.204213 188.638125 
L 429.775504 188.638125 
L 429.775504 183.358125 
L 428.204213 183.358125 
z
" clip-path="url(#pbbfcc6f41c)" style="fill: #1f77b4"/>
   </g>
   <g id="patch_138">
    <path d="M 430.448915 188.638125 
L 432.020206 188.638125 
L 432.020206 183.528448 
L 430.448915 183.528448 
z
" clip-path="url(#pbbfcc6f41c)" style="fill: #1f77b4"/>
   </g>
   <g id="patch_139">
    <path d="M 432.693617 188.638125 
L 434.264908 188.638125 
L 434.264908 183.688125 
L 432.693617 183.688125 
z
" clip-path="url(#pbbfcc6f41c)" style="fill: #1f77b4"/>
   </g>
   <g id="patch_140">
    <path d="M 434.938319 188.638125 
L 436.50961 188.638125 
L 436.50961 183.838125 
L 434.938319 183.838125 
z
" clip-path="url(#pbbfcc6f41c)" style="fill: #1f77b4"/>
   </g>
   <g id="patch_141">
    <path d="M 437.183021 188.638125 
L 438.754312 188.638125 
L 438.754312 183.979301 
L 437.183021 183.979301 
z
" clip-path="url(#pbbfcc6f41c)" style="fill: #1f77b4"/>
   </g>
   <g id="patch_142">
    <path d="M 439.427723 188.638125 
L 440.999014 188.638125 
L 440.999014 184.112411 
L 439.427723 184.112411 
z
" clip-path="url(#pbbfcc6f41c)" style="fill: #1f77b4"/>
   </g>
   <g id="patch_143">
    <path d="M 441.672425 188.638125 
L 443.243716 188.638125 
L 443.243716 184.238125 
L 441.672425 184.238125 
z
" clip-path="url(#pbbfcc6f41c)" style="fill: #1f77b4"/>
   </g>
   <g id="patch_144">
    <path d="M 443.917127 188.638125 
L 445.488418 188.638125 
L 445.488418 184.357044 
L 443.917127 184.357044 
z
" clip-path="url(#pbbfcc6f41c)" style="fill: #1f77b4"/>
   </g>
   <g id="patch_145">
    <path d="M 446.161829 188.638125 
L 447.73312 188.638125 
L 447.73312 184.469704 
L 446.161829 184.469704 
z
" clip-path="url(#pbbfcc6f41c)" style="fill: #1f77b4"/>
   </g>
   <g id="patch_146">
    <path d="M 448.406531 188.638125 
L 449.977822 188.638125 
L 449.977822 184.576587 
L 448.406531 184.576587 
z
" clip-path="url(#pbbfcc6f41c)" style="fill: #1f77b4"/>
   </g>
   <g id="patch_147">
    <path d="M 450.651233 188.638125 
L 452.222524 188.638125 
L 452.222524 184.678125 
L 450.651233 184.678125 
z
" clip-path="url(#pbbfcc6f41c)" style="fill: #1f77b4"/>
   </g>
   <g id="patch_148">
    <path d="M 452.895935 188.638125 
L 454.467227 188.638125 
L 454.467227 184.77471 
L 452.895935 184.77471 
z
" clip-path="url(#pbbfcc6f41c)" style="fill: #1f77b4"/>
   </g>
   <g id="patch_149">
    <path d="M 455.140637 188.638125 
L 456.711929 188.638125 
L 456.711929 184.866696 
L 455.140637 184.866696 
z
" clip-path="url(#pbbfcc6f41c)" style="fill: #1f77b4"/>
   </g>
   <g id="patch_150">
    <path d="M 457.385339 188.638125 
L 458.956631 188.638125 
L 458.956631 184.954404 
L 457.385339 184.954404 
z
" clip-path="url(#pbbfcc6f41c)" style="fill: #1f77b4"/>
   </g>
   <g id="patch_151">
    <path d="M 459.630041 188.638125 
L 461.201333 188.638125 
L 461.201333 185.038125 
L 459.630041 185.038125 
z
" clip-path="url(#pbbfcc6f41c)" style="fill: #1f77b4"/>
   </g>
   <g id="patch_152">
    <path d="M 461.874743 188.638125 
L 463.446035 188.638125 
L 463.446035 185.118125 
L 461.874743 185.118125 
z
" clip-path="url(#pbbfcc6f41c)" style="fill: #1f77b4"/>
   </g>
   <g id="patch_153">
    <path d="M 464.119445 188.638125 
L 465.690737 188.638125 
L 465.690737 185.194647 
L 464.119445 185.194647 
z
" clip-path="url(#pbbfcc6f41c)" style="fill: #1f77b4"/>
   </g>
   <g id="patch_154">
    <path d="M 466.364147 188.638125 
L 467.935439 188.638125 
L 467.935439 185.267912 
L 466.364147 185.267912 
z
" clip-path="url(#pbbfcc6f41c)" style="fill: #1f77b4"/>
   </g>
   <g id="patch_155">
    <path d="M 468.608849 188.638125 
L 470.180141 188.638125 
L 470.180141 185.338125 
L 468.608849 185.338125 
z
" clip-path="url(#pbbfcc6f41c)" style="fill: #1f77b4"/>
   </g>
   <g id="patch_156">
    <path d="M 470.853551 188.638125 
L 472.424843 188.638125 
L 472.424843 185.405472 
L 470.853551 185.405472 
z
" clip-path="url(#pbbfcc6f41c)" style="fill: #1f77b4"/>
   </g>
   <g id="patch_157">
    <path d="M 473.098253 188.638125 
L 474.669545 188.638125 
L 474.669545 185.470125 
L 473.098253 185.470125 
z
" clip-path="url(#pbbfcc6f41c)" style="fill: #1f77b4"/>
   </g>
   <g id="patch_158">
    <path d="M 475.342955 188.638125 
L 476.914247 188.638125 
L 476.914247 185.532243 
L 475.342955 185.532243 
z
" clip-path="url(#pbbfcc6f41c)" style="fill: #1f77b4"/>
   </g>
   <g id="patch_159">
    <path d="M 477.587657 188.638125 
L 479.158949 188.638125 
L 479.158949 185.591971 
L 477.587657 185.591971 
z
" clip-path="url(#pbbfcc6f41c)" style="fill: #1f77b4"/>
   </g>
   <g id="patch_160">
    <path d="M 479.832359 188.638125 
L 481.403651 188.638125 
L 481.403651 185.649446 
L 479.832359 185.649446 
z
" clip-path="url(#pbbfcc6f41c)" style="fill: #1f77b4"/>
   </g>
   <g id="patch_161">
    <path d="M 482.077061 188.638125 
L 483.648353 188.638125 
L 483.648353 185.704792 
L 482.077061 185.704792 
z
" clip-path="url(#pbbfcc6f41c)" style="fill: #1f77b4"/>
   </g>
   <g id="patch_162">
    <path d="M 484.321763 188.638125 
L 485.893055 188.638125 
L 485.893055 185.758125 
L 484.321763 185.758125 
z
" clip-path="url(#pbbfcc6f41c)" style="fill: #1f77b4"/>
   </g>
   <g id="patch_163">
    <path d="M 486.566465 188.638125 
L 488.137757 188.638125 
L 488.137757 185.809554 
L 486.566465 185.809554 
z
" clip-path="url(#pbbfcc6f41c)" style="fill: #1f77b4"/>
   </g>
   <g id="patch_164">
    <path d="M 488.811167 188.638125 
L 490.382459 188.638125 
L 490.382459 185.859178 
L 488.811167 185.859178 
z
" clip-path="url(#pbbfcc6f41c)" style="fill: #1f77b4"/>
   </g>
   <g id="patch_165">
    <path d="M 491.055869 188.638125 
L 492.627161 188.638125 
L 492.627161 185.907091 
L 491.055869 185.907091 
z
" clip-path="url(#pbbfcc6f41c)" style="fill: #1f77b4"/>
   </g>
   <g id="patch_166">
    <path d="M 493.300571 188.638125 
L 494.871863 188.638125 
L 494.871863 185.953379 
L 493.300571 185.953379 
z
" clip-path="url(#pbbfcc6f41c)" style="fill: #1f77b4"/>
   </g>
   <g id="patch_167">
    <path d="M 495.545273 188.638125 
L 497.116565 188.638125 
L 497.116565 185.998125 
L 495.545273 185.998125 
z
" clip-path="url(#pbbfcc6f41c)" style="fill: #1f77b4"/>
   </g>
   <g id="patch_168">
    <path d="M 497.789976 188.638125 
L 499.361267 188.638125 
L 499.361267 186.041404 
L 497.789976 186.041404 
z
" clip-path="url(#pbbfcc6f41c)" style="fill: #1f77b4"/>
   </g>
   <g id="patch_169">
    <path d="M 500.034678 188.638125 
L 501.605969 188.638125 
L 501.605969 186.083286 
L 500.034678 186.083286 
z
" clip-path="url(#pbbfcc6f41c)" style="fill: #1f77b4"/>
   </g>
   <g id="patch_170">
    <path d="M 502.27938 188.638125 
L 503.850671 188.638125 
L 503.850671 186.123839 
L 502.27938 186.123839 
z
" clip-path="url(#pbbfcc6f41c)" style="fill: #1f77b4"/>
   </g>
   <g id="patch_171">
    <path d="M 504.524082 188.638125 
L 506.095373 188.638125 
L 506.095373 186.163125 
L 504.524082 186.163125 
z
" clip-path="url(#pbbfcc6f41c)" style="fill: #1f77b4"/>
   </g>
   <g id="patch_172">
    <path d="M 506.768784 188.638125 
L 508.340075 188.638125 
L 508.340075 186.201202 
L 506.768784 186.201202 
z
" clip-path="url(#pbbfcc6f41c)" style="fill: #1f77b4"/>
   </g>
   <g id="patch_173">
    <path d="M 509.013486 188.638125 
L 510.584777 188.638125 
L 510.584777 186.238125 
L 509.013486 186.238125 
z
" clip-path="url(#pbbfcc6f41c)" style="fill: #1f77b4"/>
   </g>
   <g id="patch_174">
    <path d="M 511.258188 188.638125 
L 512.829479 188.638125 
L 512.829479 186.273946 
L 511.258188 186.273946 
z
" clip-path="url(#pbbfcc6f41c)" style="fill: #1f77b4"/>
   </g>
   <g id="patch_175">
    <path d="M 513.50289 188.638125 
L 515.074181 188.638125 
L 515.074181 186.308713 
L 513.50289 186.308713 
z
" clip-path="url(#pbbfcc6f41c)" style="fill: #1f77b4"/>
   </g>
   <g id="patch_176">
    <path d="M 515.747592 188.638125 
L 517.318883 188.638125 
L 517.318883 186.342473 
L 515.747592 186.342473 
z
" clip-path="url(#pbbfcc6f41c)" style="fill: #1f77b4"/>
   </g>
   <g id="patch_177">
    <path d="M 517.992294 188.638125 
L 519.563585 188.638125 
L 519.563585 186.375268 
L 517.992294 186.375268 
z
" clip-path="url(#pbbfcc6f41c)" style="fill: #1f77b4"/>
   </g>
   <g id="patch_178">
    <path d="M 520.236996 188.638125 
L 521.808287 188.638125 
L 521.808287 186.407139 
L 520.236996 186.407139 
z
" clip-path="url(#pbbfcc6f41c)" style="fill: #1f77b4"/>
   </g>
   <g id="patch_179">
    <path d="M 522.481698 188.638125 
L 524.052989 188.638125 
L 524.052989 186.438125 
L 522.481698 186.438125 
z
" clip-path="url(#pbbfcc6f41c)" style="fill: #1f77b4"/>
   </g>
   <g id="patch_180">
    <path d="M 524.7264 188.638125 
L 526.297691 188.638125 
L 526.297691 186.468262 
L 524.7264 186.468262 
z
" clip-path="url(#pbbfcc6f41c)" style="fill: #1f77b4"/>
   </g>
   <g id="patch_181">
    <path d="M 526.971102 188.638125 
L 528.542393 188.638125 
L 528.542393 186.497584 
L 526.971102 186.497584 
z
" clip-path="url(#pbbfcc6f41c)" style="fill: #1f77b4"/>
   </g>
   <g id="patch_182">
    <path d="M 529.215804 188.638125 
L 530.787095 188.638125 
L 530.787095 186.526125 
L 529.215804 186.526125 
z
" clip-path="url(#pbbfcc6f41c)" style="fill: #1f77b4"/>
   </g>
   <g id="patch_183">
    <path d="M 531.460506 188.638125 
L 533.031797 188.638125 
L 533.031797 186.553914 
L 531.460506 186.553914 
z
" clip-path="url(#pbbfcc6f41c)" style="fill: #1f77b4"/>
   </g>
   <g id="patch_184">
    <path d="M 533.705208 188.638125 
L 535.276499 188.638125 
L 535.276499 186.580982 
L 533.705208 186.580982 
z
" clip-path="url(#pbbfcc6f41c)" style="fill: #1f77b4"/>
   </g>
   <g id="patch_185">
    <path d="M 535.94991 188.638125 
L 537.521201 188.638125 
L 537.521201 186.607356 
L 535.94991 186.607356 
z
" clip-path="url(#pbbfcc6f41c)" style="fill: #1f77b4"/>
   </g>
   <g id="patch_186">
    <path d="M 538.194612 188.638125 
L 539.765903 188.638125 
L 539.765903 186.633062 
L 538.194612 186.633062 
z
" clip-path="url(#pbbfcc6f41c)" style="fill: #1f77b4"/>
   </g>
   <g id="patch_187">
    <path d="M 540.439314 188.638125 
L 542.010605 188.638125 
L 542.010605 186.658125 
L 540.439314 186.658125 
z
" clip-path="url(#pbbfcc6f41c)" style="fill: #1f77b4"/>
   </g>
   <g id="patch_188">
    <path d="M 542.684016 188.638125 
L 544.255307 188.638125 
L 544.255307 186.682569 
L 542.684016 186.682569 
z
" clip-path="url(#pbbfcc6f41c)" style="fill: #1f77b4"/>
   </g>
   <g id="patch_189">
    <path d="M 544.928718 188.638125 
L 546.500009 188.638125 
L 546.500009 186.706418 
L 544.928718 186.706418 
z
" clip-path="url(#pbbfcc6f41c)" style="fill: #1f77b4"/>
   </g>
   <g id="patch_190">
    <path d="M 547.17342 188.638125 
L 548.744711 188.638125 
L 548.744711 186.729691 
L 547.17342 186.729691 
z
" clip-path="url(#pbbfcc6f41c)" style="fill: #1f77b4"/>
   </g>
   <g id="patch_191">
    <path d="M 549.418122 188.638125 
L 550.989413 188.638125 
L 550.989413 186.752411 
L 549.418122 186.752411 
z
" clip-path="url(#pbbfcc6f41c)" style="fill: #1f77b4"/>
   </g>
   <g id="patch_192">
    <path d="M 551.662824 188.638125 
L 553.234115 188.638125 
L 553.234115 186.774596 
L 551.662824 186.774596 
z
" clip-path="url(#pbbfcc6f41c)" style="fill: #1f77b4"/>
   </g>
   <g id="patch_193">
    <path d="M 553.907526 188.638125 
L 555.478817 188.638125 
L 555.478817 186.796265 
L 553.907526 186.796265 
z
" clip-path="url(#pbbfcc6f41c)" style="fill: #1f77b4"/>
   </g>
   <g id="patch_194">
    <path d="M 556.152228 188.638125 
L 557.723519 188.638125 
L 557.723519 186.817435 
L 556.152228 186.817435 
z
" clip-path="url(#pbbfcc6f41c)" style="fill: #1f77b4"/>
   </g>
   <g id="patch_195">
    <path d="M 558.39693 188.638125 
L 559.968221 188.638125 
L 559.968221 186.838125 
L 558.39693 186.838125 
z
" clip-path="url(#pbbfcc6f41c)" style="fill: #1f77b4"/>
   </g>
   <g id="patch_196">
    <path d="M 560.641632 188.638125 
L 562.212923 188.638125 
L 562.212923 186.85835 
L 560.641632 186.85835 
z
" clip-path="url(#pbbfcc6f41c)" style="fill: #1f77b4"/>
   </g>
   <g id="patch_197">
    <path d="M 562.886334 188.638125 
L 564.457626 188.638125 
L 564.457626 186.878125 
L 562.886334 186.878125 
z
" clip-path="url(#pbbfcc6f41c)" style="fill: #1f77b4"/>
   </g>
   <g id="patch_198">
    <path d="M 565.131036 188.638125 
L 566.702328 188.638125 
L 566.702328 186.897466 
L 565.131036 186.897466 
z
" clip-path="url(#pbbfcc6f41c)" style="fill: #1f77b4"/>
   </g>
   <g id="patch_199">
    <path d="M 567.375738 188.638125 
L 568.94703 188.638125 
L 568.94703 186.916386 
L 567.375738 186.916386 
z
" clip-path="url(#pbbfcc6f41c)" style="fill: #1f77b4"/>
   </g>
   <g id="patch_200">
    <path d="M 569.62044 188.638125 
L 571.191732 188.638125 
L 571.191732 186.934899 
L 569.62044 186.934899 
z
" clip-path="url(#pbbfcc6f41c)" style="fill: #1f77b4"/>
   </g>
   <g id="patch_201">
    <path d="M 571.865142 188.638125 
L 573.436434 188.638125 
L 573.436434 186.953019 
L 571.865142 186.953019 
z
" clip-path="url(#pbbfcc6f41c)" style="fill: #1f77b4"/>
   </g>
   <g id="patch_202">
    <path d="M 574.109844 188.638125 
L 575.681136 188.638125 
L 575.681136 186.970757 
L 574.109844 186.970757 
z
" clip-path="url(#pbbfcc6f41c)" style="fill: #1f77b4"/>
   </g>
   <g id="patch_203">
    <path d="M 576.354546 188.638125 
L 577.925838 188.638125 
L 577.925838 186.988125 
L 576.354546 186.988125 
z
" clip-path="url(#pbbfcc6f41c)" style="fill: #1f77b4"/>
   </g>
   <g id="patch_204">
    <path d="M 578.599248 188.638125 
L 580.17054 188.638125 
L 580.17054 187.005135 
L 578.599248 187.005135 
z
" clip-path="url(#pbbfcc6f41c)" style="fill: #1f77b4"/>
   </g>
   <g id="patch_205">
    <path d="M 580.84395 188.638125 
L 582.415242 188.638125 
L 582.415242 187.021798 
L 580.84395 187.021798 
z
" clip-path="url(#pbbfcc6f41c)" style="fill: #1f77b4"/>
   </g>
   <g id="patch_206">
    <path d="M 583.088652 188.638125 
L 584.659944 188.638125 
L 584.659944 187.038125 
L 583.088652 187.038125 
z
" clip-path="url(#pbbfcc6f41c)" style="fill: #1f77b4"/>
   </g>
   <g id="patch_207">
    <path d="M 585.333354 188.638125 
L 586.904646 188.638125 
L 586.904646 187.054125 
L 585.333354 187.054125 
z
" clip-path="url(#pbbfcc6f41c)" style="fill: #1f77b4"/>
   </g>
   <g id="matplotlib.axis_3">
    <g id="xtick_7">
     <g id="line2d_15">
      <g>
       <use xlink:href="#mf5c77d62a5" x="361.648798" y="188.638125" style="stroke: #000000; stroke-width: 0.8"/>
      </g>
     </g>
     <g id="text_18">
      <!-- 0 -->
      <g transform="translate(358.467548 203.236563)scale(0.1 -0.1)">
       <use xlink:href="#DejaVuSans-30"/>
      </g>
     </g>
    </g>
    <g id="xtick_8">
     <g id="line2d_16">
      <g>
       <use xlink:href="#mf5c77d62a5" x="406.542838" y="188.638125" style="stroke: #000000; stroke-width: 0.8"/>
      </g>
     </g>
     <g id="text_19">
      <!-- 20 -->
      <g transform="translate(400.180338 203.236563)scale(0.1 -0.1)">
       <use xlink:href="#DejaVuSans-32"/>
       <use xlink:href="#DejaVuSans-30" x="63.623047"/>
      </g>
     </g>
    </g>
    <g id="xtick_9">
     <g id="line2d_17">
      <g>
       <use xlink:href="#mf5c77d62a5" x="451.436879" y="188.638125" style="stroke: #000000; stroke-width: 0.8"/>
      </g>
     </g>
     <g id="text_20">
      <!-- 40 -->
      <g transform="translate(445.074379 203.236563)scale(0.1 -0.1)">
       <use xlink:href="#DejaVuSans-34"/>
       <use xlink:href="#DejaVuSans-30" x="63.623047"/>
      </g>
     </g>
    </g>
    <g id="xtick_10">
     <g id="line2d_18">
      <g>
       <use xlink:href="#mf5c77d62a5" x="496.330919" y="188.638125" style="stroke: #000000; stroke-width: 0.8"/>
      </g>
     </g>
     <g id="text_21">
      <!-- 60 -->
      <g transform="translate(489.968419 203.236563)scale(0.1 -0.1)">
       <use xlink:href="#DejaVuSans-36"/>
       <use xlink:href="#DejaVuSans-30" x="63.623047"/>
      </g>
     </g>
    </g>
    <g id="xtick_11">
     <g id="line2d_19">
      <g>
       <use xlink:href="#mf5c77d62a5" x="541.22496" y="188.638125" style="stroke: #000000; stroke-width: 0.8"/>
      </g>
     </g>
     <g id="text_22">
      <!-- 80 -->
      <g transform="translate(534.86246 203.236563)scale(0.1 -0.1)">
       <use xlink:href="#DejaVuSans-38"/>
       <use xlink:href="#DejaVuSans-30" x="63.623047"/>
      </g>
     </g>
    </g>
    <g id="xtick_12">
     <g id="line2d_20">
      <g>
       <use xlink:href="#mf5c77d62a5" x="586.119" y="188.638125" style="stroke: #000000; stroke-width: 0.8"/>
      </g>
     </g>
     <g id="text_23">
      <!-- 100 -->
      <g transform="translate(576.57525 203.236563)scale(0.1 -0.1)">
       <use xlink:href="#DejaVuSans-31"/>
       <use xlink:href="#DejaVuSans-30" x="63.623047"/>
       <use xlink:href="#DejaVuSans-30" x="127.246094"/>
      </g>
     </g>
    </g>
    <g id="text_24">
     <!-- Index $i$ of $\sigma_i$ -->
     <g transform="translate(445.85625 216.914688)scale(0.1 -0.1)">
      <use xlink:href="#DejaVuSans-49" transform="translate(0 0.015625)"/>
      <use xlink:href="#DejaVuSans-6e" transform="translate(29.492188 0.015625)"/>
      <use xlink:href="#DejaVuSans-64" transform="translate(92.871094 0.015625)"/>
      <use xlink:href="#DejaVuSans-65" transform="translate(156.347656 0.015625)"/>
      <use xlink:href="#DejaVuSans-78" transform="translate(217.871094 0.015625)"/>
      <use xlink:href="#DejaVuSans-20" transform="translate(277.050781 0.015625)"/>
      <use xlink:href="#DejaVuSans-Oblique-69" transform="translate(308.837891 0.015625)"/>
      <use xlink:href="#DejaVuSans-20" transform="translate(336.621094 0.015625)"/>
      <use xlink:href="#DejaVuSans-6f" transform="translate(368.408203 0.015625)"/>
      <use xlink:href="#DejaVuSans-66" transform="translate(429.589844 0.015625)"/>
      <use xlink:href="#DejaVuSans-20" transform="translate(464.794922 0.015625)"/>
      <use xlink:href="#DejaVuSans-Oblique-3c3" transform="translate(496.582031 0.015625)"/>
      <use xlink:href="#DejaVuSans-Oblique-69" transform="translate(559.960938 -16.390625)scale(0.7)"/>
     </g>
    </g>
   </g>
   <g id="matplotlib.axis_4">
    <g id="ytick_9">
     <g id="line2d_21">
      <g>
       <use xlink:href="#m9487d794b4" x="351.918015" y="188.638125" style="stroke: #000000; stroke-width: 0.8"/>
      </g>
     </g>
     <g id="text_25">
      <!-- 0.00 -->
      <g transform="translate(322.65239 192.437344)scale(0.1 -0.1)">
       <use xlink:href="#DejaVuSans-30"/>
       <use xlink:href="#DejaVuSans-2e" x="63.623047"/>
       <use xlink:href="#DejaVuSans-30" x="95.410156"/>
       <use xlink:href="#DejaVuSans-30" x="159.033203"/>
      </g>
     </g>
    </g>
    <g id="ytick_10">
     <g id="line2d_22">
      <g>
       <use xlink:href="#m9487d794b4" x="351.918015" y="147.554095" style="stroke: #000000; stroke-width: 0.8"/>
      </g>
     </g>
     <g id="text_26">
      <!-- 0.05 -->
      <g transform="translate(322.65239 151.353314)scale(0.1 -0.1)">
       <defs>
        <path id="DejaVuSans-35" d="M 691 4666 
L 3169 4666 
L 3169 4134 
L 1269 4134 
L 1269 2991 
Q 1406 3038 1543 3061 
Q 1681 3084 1819 3084 
Q 2600 3084 3056 2656 
Q 3513 2228 3513 1497 
Q 3513 744 3044 326 
Q 2575 -91 1722 -91 
Q 1428 -91 1123 -41 
Q 819 9 494 109 
L 494 744 
Q 775 591 1075 516 
Q 1375 441 1709 441 
Q 2250 441 2565 725 
Q 2881 1009 2881 1497 
Q 2881 1984 2565 2268 
Q 2250 2553 1709 2553 
Q 1456 2553 1204 2497 
Q 953 2441 691 2322 
L 691 4666 
z
" transform="scale(0.015625)"/>
       </defs>
       <use xlink:href="#DejaVuSans-30"/>
       <use xlink:href="#DejaVuSans-2e" x="63.623047"/>
       <use xlink:href="#DejaVuSans-30" x="95.410156"/>
       <use xlink:href="#DejaVuSans-35" x="159.033203"/>
      </g>
     </g>
    </g>
    <g id="ytick_11">
     <g id="line2d_23">
      <g>
       <use xlink:href="#m9487d794b4" x="351.918015" y="106.470065" style="stroke: #000000; stroke-width: 0.8"/>
      </g>
     </g>
     <g id="text_27">
      <!-- 0.10 -->
      <g transform="translate(322.65239 110.269284)scale(0.1 -0.1)">
       <use xlink:href="#DejaVuSans-30"/>
       <use xlink:href="#DejaVuSans-2e" x="63.623047"/>
       <use xlink:href="#DejaVuSans-31" x="95.410156"/>
       <use xlink:href="#DejaVuSans-30" x="159.033203"/>
      </g>
     </g>
    </g>
    <g id="ytick_12">
     <g id="line2d_24">
      <g>
       <use xlink:href="#m9487d794b4" x="351.918015" y="65.386035" style="stroke: #000000; stroke-width: 0.8"/>
      </g>
     </g>
     <g id="text_28">
      <!-- 0.15 -->
      <g transform="translate(322.65239 69.185254)scale(0.1 -0.1)">
       <use xlink:href="#DejaVuSans-30"/>
       <use xlink:href="#DejaVuSans-2e" x="63.623047"/>
       <use xlink:href="#DejaVuSans-31" x="95.410156"/>
       <use xlink:href="#DejaVuSans-35" x="159.033203"/>
      </g>
     </g>
    </g>
    <g id="ytick_13">
     <g id="line2d_25">
      <g>
       <use xlink:href="#m9487d794b4" x="351.918015" y="24.302005" style="stroke: #000000; stroke-width: 0.8"/>
      </g>
     </g>
     <g id="text_29">
      <!-- 0.20 -->
      <g transform="translate(322.65239 28.101224)scale(0.1 -0.1)">
       <use xlink:href="#DejaVuSans-30"/>
       <use xlink:href="#DejaVuSans-2e" x="63.623047"/>
       <use xlink:href="#DejaVuSans-32" x="95.410156"/>
       <use xlink:href="#DejaVuSans-30" x="159.033203"/>
      </g>
     </g>
    </g>
   </g>
   <g id="patch_208">
    <path d="M 351.918015 188.638125 
L 351.918015 22.318125 
" style="fill: none; stroke: #000000; stroke-width: 0.8; stroke-linejoin: miter; stroke-linecap: square"/>
   </g>
   <g id="patch_209">
    <path d="M 598.094485 188.638125 
L 598.094485 22.318125 
" style="fill: none; stroke: #000000; stroke-width: 0.8; stroke-linejoin: miter; stroke-linecap: square"/>
   </g>
   <g id="patch_210">
    <path d="M 351.918015 188.638125 
L 598.094485 188.638125 
" style="fill: none; stroke: #000000; stroke-width: 0.8; stroke-linejoin: miter; stroke-linecap: square"/>
   </g>
   <g id="patch_211">
    <path d="M 351.918015 22.318125 
L 598.094485 22.318125 
" style="fill: none; stroke: #000000; stroke-width: 0.8; stroke-linejoin: miter; stroke-linecap: square"/>
   </g>
   <g id="text_30">
    <!-- $\alpha = 1$ -->
    <g transform="translate(459.82625 16.318125)scale(0.12 -0.12)">
     <use xlink:href="#DejaVuSans-Oblique-3b1" transform="translate(0 0.09375)"/>
     <use xlink:href="#DejaVuSans-3d" transform="translate(85.400391 0.09375)"/>
     <use xlink:href="#DejaVuSans-31" transform="translate(188.671875 0.09375)"/>
    </g>
   </g>
  </g>
  <g id="axes_3">
   <g id="patch_212">
    <path d="M 647.329779 188.638125 
L 893.50625 188.638125 
L 893.50625 22.318125 
L 647.329779 22.318125 
z
" style="fill: #ffffff"/>
   </g>
   <g id="patch_213">
    <path d="M 658.519619 188.638125 
L 660.09091 188.638125 
L 660.09091 30.238125 
L 658.519619 30.238125 
z
" clip-path="url(#p1742c95c37)" style="fill: #1f77b4"/>
   </g>
   <g id="patch_214">
    <path d="M 660.764321 188.638125 
L 662.335612 188.638125 
L 662.335612 168.838125 
L 660.764321 168.838125 
z
" clip-path="url(#p1742c95c37)" style="fill: #1f77b4"/>
   </g>
   <g id="patch_215">
    <path d="M 663.009023 188.638125 
L 664.580314 188.638125 
L 664.580314 182.771458 
L 663.009023 182.771458 
z
" clip-path="url(#p1742c95c37)" style="fill: #1f77b4"/>
   </g>
   <g id="patch_216">
    <path d="M 665.253725 188.638125 
L 666.825016 188.638125 
L 666.825016 186.163125 
L 665.253725 186.163125 
z
" clip-path="url(#p1742c95c37)" style="fill: #1f77b4"/>
   </g>
   <g id="patch_217">
    <path d="M 667.498427 188.638125 
L 669.069718 188.638125 
L 669.069718 187.370925 
L 667.498427 187.370925 
z
" clip-path="url(#p1742c95c37)" style="fill: #1f77b4"/>
   </g>
   <g id="patch_218">
    <path d="M 669.743129 188.638125 
L 671.314421 188.638125 
L 671.314421 187.904792 
L 669.743129 187.904792 
z
" clip-path="url(#p1742c95c37)" style="fill: #1f77b4"/>
   </g>
   <g id="patch_219">
    <path d="M 671.987831 188.638125 
L 673.559123 188.638125 
L 673.559123 188.176317 
L 671.987831 188.176317 
z
" clip-path="url(#p1742c95c37)" style="fill: #1f77b4"/>
   </g>
   <g id="patch_220">
    <path d="M 674.232533 188.638125 
L 675.803825 188.638125 
L 675.803825 188.32875 
L 674.232533 188.32875 
z
" clip-path="url(#p1742c95c37)" style="fill: #1f77b4"/>
   </g>
   <g id="patch_221">
    <path d="M 676.477235 188.638125 
L 678.048527 188.638125 
L 678.048527 188.420841 
L 676.477235 188.420841 
z
" clip-path="url(#p1742c95c37)" style="fill: #1f77b4"/>
   </g>
   <g id="patch_222">
    <path d="M 678.721937 188.638125 
L 680.293229 188.638125 
L 680.293229 188.479725 
L 678.721937 188.479725 
z
" clip-path="url(#p1742c95c37)" style="fill: #1f77b4"/>
   </g>
   <g id="patch_223">
    <path d="M 680.966639 188.638125 
L 682.537931 188.638125 
L 682.537931 188.519117 
L 680.966639 188.519117 
z
" clip-path="url(#p1742c95c37)" style="fill: #1f77b4"/>
   </g>
   <g id="patch_224">
    <path d="M 683.211341 188.638125 
L 684.782633 188.638125 
L 684.782633 188.546458 
L 683.211341 188.546458 
z
" clip-path="url(#p1742c95c37)" style="fill: #1f77b4"/>
   </g>
   <g id="patch_225">
    <path d="M 685.456043 188.638125 
L 687.027335 188.638125 
L 687.027335 188.566027 
L 685.456043 188.566027 
z
" clip-path="url(#p1742c95c37)" style="fill: #1f77b4"/>
   </g>
   <g id="patch_226">
    <path d="M 687.700745 188.638125 
L 689.272037 188.638125 
L 689.272037 188.580399 
L 687.700745 188.580399 
z
" clip-path="url(#p1742c95c37)" style="fill: #1f77b4"/>
   </g>
   <g id="patch_227">
    <path d="M 689.945447 188.638125 
L 691.516739 188.638125 
L 691.516739 188.591192 
L 689.945447 188.591192 
z
" clip-path="url(#p1742c95c37)" style="fill: #1f77b4"/>
   </g>
   <g id="patch_228">
    <path d="M 692.190149 188.638125 
L 693.761441 188.638125 
L 693.761441 188.599453 
L 692.190149 188.599453 
z
" clip-path="url(#p1742c95c37)" style="fill: #1f77b4"/>
   </g>
   <g id="patch_229">
    <path d="M 694.434851 188.638125 
L 696.006143 188.638125 
L 696.006143 188.605884 
L 694.434851 188.605884 
z
" clip-path="url(#p1742c95c37)" style="fill: #1f77b4"/>
   </g>
   <g id="patch_230">
    <path d="M 696.679553 188.638125 
L 698.250845 188.638125 
L 698.250845 188.610965 
L 696.679553 188.610965 
z
" clip-path="url(#p1742c95c37)" style="fill: #1f77b4"/>
   </g>
   <g id="patch_231">
    <path d="M 698.924255 188.638125 
L 700.495547 188.638125 
L 700.495547 188.615031 
L 698.924255 188.615031 
z
" clip-path="url(#p1742c95c37)" style="fill: #1f77b4"/>
   </g>
   <g id="patch_232">
    <path d="M 701.168957 188.638125 
L 702.740249 188.638125 
L 702.740249 188.618325 
L 701.168957 188.618325 
z
" clip-path="url(#p1742c95c37)" style="fill: #1f77b4"/>
   </g>
   <g id="patch_233">
    <path d="M 703.413659 188.638125 
L 704.984951 188.638125 
L 704.984951 188.621021 
L 703.413659 188.621021 
z
" clip-path="url(#p1742c95c37)" style="fill: #1f77b4"/>
   </g>
   <g id="patch_234">
    <path d="M 705.658361 188.638125 
L 707.229653 188.638125 
L 707.229653 188.623249 
L 705.658361 188.623249 
z
" clip-path="url(#p1742c95c37)" style="fill: #1f77b4"/>
   </g>
   <g id="patch_235">
    <path d="M 707.903063 188.638125 
L 709.474355 188.638125 
L 709.474355 188.625106 
L 707.903063 188.625106 
z
" clip-path="url(#p1742c95c37)" style="fill: #1f77b4"/>
   </g>
   <g id="patch_236">
    <path d="M 710.147765 188.638125 
L 711.719057 188.638125 
L 711.719057 188.626667 
L 710.147765 188.626667 
z
" clip-path="url(#p1742c95c37)" style="fill: #1f77b4"/>
   </g>
   <g id="patch_237">
    <path d="M 712.392467 188.638125 
L 713.963759 188.638125 
L 713.963759 188.627987 
L 712.392467 188.627987 
z
" clip-path="url(#p1742c95c37)" style="fill: #1f77b4"/>
   </g>
   <g id="patch_238">
    <path d="M 714.637169 188.638125 
L 716.208461 188.638125 
L 716.208461 188.629113 
L 714.637169 188.629113 
z
" clip-path="url(#p1742c95c37)" style="fill: #1f77b4"/>
   </g>
   <g id="patch_239">
    <path d="M 716.881872 188.638125 
L 718.453163 188.638125 
L 718.453163 188.630077 
L 716.881872 188.630077 
z
" clip-path="url(#p1742c95c37)" style="fill: #1f77b4"/>
   </g>
   <g id="patch_240">
    <path d="M 719.126574 188.638125 
L 720.697865 188.638125 
L 720.697865 188.630909 
L 719.126574 188.630909 
z
" clip-path="url(#p1742c95c37)" style="fill: #1f77b4"/>
   </g>
   <g id="patch_241">
    <path d="M 721.371276 188.638125 
L 722.942567 188.638125 
L 722.942567 188.63163 
L 721.371276 188.63163 
z
" clip-path="url(#p1742c95c37)" style="fill: #1f77b4"/>
   </g>
   <g id="patch_242">
    <path d="M 723.615978 188.638125 
L 725.187269 188.638125 
L 725.187269 188.632258 
L 723.615978 188.632258 
z
" clip-path="url(#p1742c95c37)" style="fill: #1f77b4"/>
   </g>
   <g id="patch_243">
    <path d="M 725.86068 188.638125 
L 727.431971 188.638125 
L 727.431971 188.632808 
L 725.86068 188.632808 
z
" clip-path="url(#p1742c95c37)" style="fill: #1f77b4"/>
   </g>
   <g id="patch_244">
    <path d="M 728.105382 188.638125 
L 729.676673 188.638125 
L 729.676673 188.633291 
L 728.105382 188.633291 
z
" clip-path="url(#p1742c95c37)" style="fill: #1f77b4"/>
   </g>
   <g id="patch_245">
    <path d="M 730.350084 188.638125 
L 731.921375 188.638125 
L 731.921375 188.633717 
L 730.350084 188.633717 
z
" clip-path="url(#p1742c95c37)" style="fill: #1f77b4"/>
   </g>
   <g id="patch_246">
    <path d="M 732.594786 188.638125 
L 734.166077 188.638125 
L 734.166077 188.634095 
L 732.594786 188.634095 
z
" clip-path="url(#p1742c95c37)" style="fill: #1f77b4"/>
   </g>
   <g id="patch_247">
    <path d="M 734.839488 188.638125 
L 736.410779 188.638125 
L 736.410779 188.634431 
L 734.839488 188.634431 
z
" clip-path="url(#p1742c95c37)" style="fill: #1f77b4"/>
   </g>
   <g id="patch_248">
    <path d="M 737.08419 188.638125 
L 738.655481 188.638125 
L 738.655481 188.63473 
L 737.08419 188.63473 
z
" clip-path="url(#p1742c95c37)" style="fill: #1f77b4"/>
   </g>
   <g id="patch_249">
    <path d="M 739.328892 188.638125 
L 740.900183 188.638125 
L 740.900183 188.634998 
L 739.328892 188.634998 
z
" clip-path="url(#p1742c95c37)" style="fill: #1f77b4"/>
   </g>
   <g id="patch_250">
    <path d="M 741.573594 188.638125 
L 743.144885 188.638125 
L 743.144885 188.635238 
L 741.573594 188.635238 
z
" clip-path="url(#p1742c95c37)" style="fill: #1f77b4"/>
   </g>
   <g id="patch_251">
    <path d="M 743.818296 188.638125 
L 745.389587 188.638125 
L 745.389587 188.635455 
L 743.818296 188.635455 
z
" clip-path="url(#p1742c95c37)" style="fill: #1f77b4"/>
   </g>
   <g id="patch_252">
    <path d="M 746.062998 188.638125 
L 747.634289 188.638125 
L 747.634289 188.63565 
L 746.062998 188.63565 
z
" clip-path="url(#p1742c95c37)" style="fill: #1f77b4"/>
   </g>
   <g id="patch_253">
    <path d="M 748.3077 188.638125 
L 749.878991 188.638125 
L 749.878991 188.635827 
L 748.3077 188.635827 
z
" clip-path="url(#p1742c95c37)" style="fill: #1f77b4"/>
   </g>
   <g id="patch_254">
    <path d="M 750.552402 188.638125 
L 752.123693 188.638125 
L 752.123693 188.635987 
L 750.552402 188.635987 
z
" clip-path="url(#p1742c95c37)" style="fill: #1f77b4"/>
   </g>
   <g id="patch_255">
    <path d="M 752.797104 188.638125 
L 754.368395 188.638125 
L 754.368395 188.636133 
L 752.797104 188.636133 
z
" clip-path="url(#p1742c95c37)" style="fill: #1f77b4"/>
   </g>
   <g id="patch_256">
    <path d="M 755.041806 188.638125 
L 756.613097 188.638125 
L 756.613097 188.636265 
L 755.041806 188.636265 
z
" clip-path="url(#p1742c95c37)" style="fill: #1f77b4"/>
   </g>
   <g id="patch_257">
    <path d="M 757.286508 188.638125 
L 758.857799 188.638125 
L 758.857799 188.636387 
L 757.286508 188.636387 
z
" clip-path="url(#p1742c95c37)" style="fill: #1f77b4"/>
   </g>
   <g id="patch_258">
    <path d="M 759.53121 188.638125 
L 761.102501 188.638125 
L 761.102501 188.636498 
L 759.53121 188.636498 
z
" clip-path="url(#p1742c95c37)" style="fill: #1f77b4"/>
   </g>
   <g id="patch_259">
    <path d="M 761.775912 188.638125 
L 763.347203 188.638125 
L 763.347203 188.636599 
L 761.775912 188.636599 
z
" clip-path="url(#p1742c95c37)" style="fill: #1f77b4"/>
   </g>
   <g id="patch_260">
    <path d="M 764.020614 188.638125 
L 765.591905 188.638125 
L 765.591905 188.636693 
L 764.020614 188.636693 
z
" clip-path="url(#p1742c95c37)" style="fill: #1f77b4"/>
   </g>
   <g id="patch_261">
    <path d="M 766.265316 188.638125 
L 767.836607 188.638125 
L 767.836607 188.636779 
L 766.265316 188.636779 
z
" clip-path="url(#p1742c95c37)" style="fill: #1f77b4"/>
   </g>
   <g id="patch_262">
    <path d="M 768.510018 188.638125 
L 770.081309 188.638125 
L 770.081309 188.636858 
L 768.510018 188.636858 
z
" clip-path="url(#p1742c95c37)" style="fill: #1f77b4"/>
   </g>
   <g id="patch_263">
    <path d="M 770.75472 188.638125 
L 772.326011 188.638125 
L 772.326011 188.636931 
L 770.75472 188.636931 
z
" clip-path="url(#p1742c95c37)" style="fill: #1f77b4"/>
   </g>
   <g id="patch_264">
    <path d="M 772.999422 188.638125 
L 774.570713 188.638125 
L 774.570713 188.636998 
L 772.999422 188.636998 
z
" clip-path="url(#p1742c95c37)" style="fill: #1f77b4"/>
   </g>
   <g id="patch_265">
    <path d="M 775.244124 188.638125 
L 776.815415 188.638125 
L 776.815415 188.637061 
L 775.244124 188.637061 
z
" clip-path="url(#p1742c95c37)" style="fill: #1f77b4"/>
   </g>
   <g id="patch_266">
    <path d="M 777.488826 188.638125 
L 779.060117 188.638125 
L 779.060117 188.637119 
L 777.488826 188.637119 
z
" clip-path="url(#p1742c95c37)" style="fill: #1f77b4"/>
   </g>
   <g id="patch_267">
    <path d="M 779.733528 188.638125 
L 781.30482 188.638125 
L 781.30482 188.637173 
L 779.733528 188.637173 
z
" clip-path="url(#p1742c95c37)" style="fill: #1f77b4"/>
   </g>
   <g id="patch_268">
    <path d="M 781.97823 188.638125 
L 783.549522 188.638125 
L 783.549522 188.637223 
L 781.97823 188.637223 
z
" clip-path="url(#p1742c95c37)" style="fill: #1f77b4"/>
   </g>
   <g id="patch_269">
    <path d="M 784.222932 188.638125 
L 785.794224 188.638125 
L 785.794224 188.63727 
L 784.222932 188.63727 
z
" clip-path="url(#p1742c95c37)" style="fill: #1f77b4"/>
   </g>
   <g id="patch_270">
    <path d="M 786.467634 188.638125 
L 788.038926 188.638125 
L 788.038926 188.637313 
L 786.467634 188.637313 
z
" clip-path="url(#p1742c95c37)" style="fill: #1f77b4"/>
   </g>
   <g id="patch_271">
    <path d="M 788.712336 188.638125 
L 790.283628 188.638125 
L 790.283628 188.637354 
L 788.712336 188.637354 
z
" clip-path="url(#p1742c95c37)" style="fill: #1f77b4"/>
   </g>
   <g id="patch_272">
    <path d="M 790.957038 188.638125 
L 792.52833 188.638125 
L 792.52833 188.637392 
L 790.957038 188.637392 
z
" clip-path="url(#p1742c95c37)" style="fill: #1f77b4"/>
   </g>
   <g id="patch_273">
    <path d="M 793.20174 188.638125 
L 794.773032 188.638125 
L 794.773032 188.637427 
L 793.20174 188.637427 
z
" clip-path="url(#p1742c95c37)" style="fill: #1f77b4"/>
   </g>
   <g id="patch_274">
    <path d="M 795.446442 188.638125 
L 797.017734 188.638125 
L 797.017734 188.63746 
L 795.446442 188.63746 
z
" clip-path="url(#p1742c95c37)" style="fill: #1f77b4"/>
   </g>
   <g id="patch_275">
    <path d="M 797.691144 188.638125 
L 799.262436 188.638125 
L 799.262436 188.637492 
L 797.691144 188.637492 
z
" clip-path="url(#p1742c95c37)" style="fill: #1f77b4"/>
   </g>
   <g id="patch_276">
    <path d="M 799.935846 188.638125 
L 801.507138 188.638125 
L 801.507138 188.637521 
L 799.935846 188.637521 
z
" clip-path="url(#p1742c95c37)" style="fill: #1f77b4"/>
   </g>
   <g id="patch_277">
    <path d="M 802.180548 188.638125 
L 803.75184 188.638125 
L 803.75184 188.637548 
L 802.180548 188.637548 
z
" clip-path="url(#p1742c95c37)" style="fill: #1f77b4"/>
   </g>
   <g id="patch_278">
    <path d="M 804.42525 188.638125 
L 805.996542 188.638125 
L 805.996542 188.637574 
L 804.42525 188.637574 
z
" clip-path="url(#p1742c95c37)" style="fill: #1f77b4"/>
   </g>
   <g id="patch_279">
    <path d="M 806.669952 188.638125 
L 808.241244 188.638125 
L 808.241244 188.637598 
L 806.669952 188.637598 
z
" clip-path="url(#p1742c95c37)" style="fill: #1f77b4"/>
   </g>
   <g id="patch_280">
    <path d="M 808.914654 188.638125 
L 810.485946 188.638125 
L 810.485946 188.637621 
L 808.914654 188.637621 
z
" clip-path="url(#p1742c95c37)" style="fill: #1f77b4"/>
   </g>
   <g id="patch_281">
    <path d="M 811.159356 188.638125 
L 812.730648 188.638125 
L 812.730648 188.637643 
L 811.159356 188.637643 
z
" clip-path="url(#p1742c95c37)" style="fill: #1f77b4"/>
   </g>
   <g id="patch_282">
    <path d="M 813.404058 188.638125 
L 814.97535 188.638125 
L 814.97535 188.637663 
L 813.404058 188.637663 
z
" clip-path="url(#p1742c95c37)" style="fill: #1f77b4"/>
   </g>
   <g id="patch_283">
    <path d="M 815.64876 188.638125 
L 817.220052 188.638125 
L 817.220052 188.637682 
L 815.64876 188.637682 
z
" clip-path="url(#p1742c95c37)" style="fill: #1f77b4"/>
   </g>
   <g id="patch_284">
    <path d="M 817.893462 188.638125 
L 819.464754 188.638125 
L 819.464754 188.637701 
L 817.893462 188.637701 
z
" clip-path="url(#p1742c95c37)" style="fill: #1f77b4"/>
   </g>
   <g id="patch_285">
    <path d="M 820.138164 188.638125 
L 821.709456 188.638125 
L 821.709456 188.637718 
L 820.138164 188.637718 
z
" clip-path="url(#p1742c95c37)" style="fill: #1f77b4"/>
   </g>
   <g id="patch_286">
    <path d="M 822.382866 188.638125 
L 823.954158 188.638125 
L 823.954158 188.637734 
L 822.382866 188.637734 
z
" clip-path="url(#p1742c95c37)" style="fill: #1f77b4"/>
   </g>
   <g id="patch_287">
    <path d="M 824.627569 188.638125 
L 826.19886 188.638125 
L 826.19886 188.63775 
L 824.627569 188.63775 
z
" clip-path="url(#p1742c95c37)" style="fill: #1f77b4"/>
   </g>
   <g id="patch_288">
    <path d="M 826.872271 188.638125 
L 828.443562 188.638125 
L 828.443562 188.637764 
L 826.872271 188.637764 
z
" clip-path="url(#p1742c95c37)" style="fill: #1f77b4"/>
   </g>
   <g id="patch_289">
    <path d="M 829.116973 188.638125 
L 830.688264 188.638125 
L 830.688264 188.637778 
L 829.116973 188.637778 
z
" clip-path="url(#p1742c95c37)" style="fill: #1f77b4"/>
   </g>
   <g id="patch_290">
    <path d="M 831.361675 188.638125 
L 832.932966 188.638125 
L 832.932966 188.637791 
L 831.361675 188.637791 
z
" clip-path="url(#p1742c95c37)" style="fill: #1f77b4"/>
   </g>
   <g id="patch_291">
    <path d="M 833.606377 188.638125 
L 835.177668 188.638125 
L 835.177668 188.637804 
L 833.606377 188.637804 
z
" clip-path="url(#p1742c95c37)" style="fill: #1f77b4"/>
   </g>
   <g id="patch_292">
    <path d="M 835.851079 188.638125 
L 837.42237 188.638125 
L 837.42237 188.637816 
L 835.851079 188.637816 
z
" clip-path="url(#p1742c95c37)" style="fill: #1f77b4"/>
   </g>
   <g id="patch_293">
    <path d="M 838.095781 188.638125 
L 839.667072 188.638125 
L 839.667072 188.637827 
L 838.095781 188.637827 
z
" clip-path="url(#p1742c95c37)" style="fill: #1f77b4"/>
   </g>
   <g id="patch_294">
    <path d="M 840.340483 188.638125 
L 841.911774 188.638125 
L 841.911774 188.637838 
L 840.340483 188.637838 
z
" clip-path="url(#p1742c95c37)" style="fill: #1f77b4"/>
   </g>
   <g id="patch_295">
    <path d="M 842.585185 188.638125 
L 844.156476 188.638125 
L 844.156476 188.637848 
L 842.585185 188.637848 
z
" clip-path="url(#p1742c95c37)" style="fill: #1f77b4"/>
   </g>
   <g id="patch_296">
    <path d="M 844.829887 188.638125 
L 846.401178 188.638125 
L 846.401178 188.637858 
L 844.829887 188.637858 
z
" clip-path="url(#p1742c95c37)" style="fill: #1f77b4"/>
   </g>
   <g id="patch_297">
    <path d="M 847.074589 188.638125 
L 848.64588 188.638125 
L 848.64588 188.637867 
L 847.074589 188.637867 
z
" clip-path="url(#p1742c95c37)" style="fill: #1f77b4"/>
   </g>
   <g id="patch_298">
    <path d="M 849.319291 188.638125 
L 850.890582 188.638125 
L 850.890582 188.637876 
L 849.319291 188.637876 
z
" clip-path="url(#p1742c95c37)" style="fill: #1f77b4"/>
   </g>
   <g id="patch_299">
    <path d="M 851.563993 188.638125 
L 853.135284 188.638125 
L 853.135284 188.637884 
L 851.563993 188.637884 
z
" clip-path="url(#p1742c95c37)" style="fill: #1f77b4"/>
   </g>
   <g id="patch_300">
    <path d="M 853.808695 188.638125 
L 855.379986 188.638125 
L 855.379986 188.637893 
L 853.808695 188.637893 
z
" clip-path="url(#p1742c95c37)" style="fill: #1f77b4"/>
   </g>
   <g id="patch_301">
    <path d="M 856.053397 188.638125 
L 857.624688 188.638125 
L 857.624688 188.6379 
L 856.053397 188.6379 
z
" clip-path="url(#p1742c95c37)" style="fill: #1f77b4"/>
   </g>
   <g id="patch_302">
    <path d="M 858.298099 188.638125 
L 859.86939 188.638125 
L 859.86939 188.637908 
L 858.298099 188.637908 
z
" clip-path="url(#p1742c95c37)" style="fill: #1f77b4"/>
   </g>
   <g id="patch_303">
    <path d="M 860.542801 188.638125 
L 862.114092 188.638125 
L 862.114092 188.637915 
L 860.542801 188.637915 
z
" clip-path="url(#p1742c95c37)" style="fill: #1f77b4"/>
   </g>
   <g id="patch_304">
    <path d="M 862.787503 188.638125 
L 864.358794 188.638125 
L 864.358794 188.637922 
L 862.787503 188.637922 
z
" clip-path="url(#p1742c95c37)" style="fill: #1f77b4"/>
   </g>
   <g id="patch_305">
    <path d="M 865.032205 188.638125 
L 866.603496 188.638125 
L 866.603496 188.637928 
L 865.032205 188.637928 
z
" clip-path="url(#p1742c95c37)" style="fill: #1f77b4"/>
   </g>
   <g id="patch_306">
    <path d="M 867.276907 188.638125 
L 868.848198 188.638125 
L 868.848198 188.637934 
L 867.276907 188.637934 
z
" clip-path="url(#p1742c95c37)" style="fill: #1f77b4"/>
   </g>
   <g id="patch_307">
    <path d="M 869.521609 188.638125 
L 871.0929 188.638125 
L 871.0929 188.63794 
L 869.521609 188.63794 
z
" clip-path="url(#p1742c95c37)" style="fill: #1f77b4"/>
   </g>
   <g id="patch_308">
    <path d="M 871.766311 188.638125 
L 873.337602 188.638125 
L 873.337602 188.637946 
L 871.766311 188.637946 
z
" clip-path="url(#p1742c95c37)" style="fill: #1f77b4"/>
   </g>
   <g id="patch_309">
    <path d="M 874.011013 188.638125 
L 875.582304 188.638125 
L 875.582304 188.637951 
L 874.011013 188.637951 
z
" clip-path="url(#p1742c95c37)" style="fill: #1f77b4"/>
   </g>
   <g id="patch_310">
    <path d="M 876.255715 188.638125 
L 877.827006 188.638125 
L 877.827006 188.637957 
L 876.255715 188.637957 
z
" clip-path="url(#p1742c95c37)" style="fill: #1f77b4"/>
   </g>
   <g id="patch_311">
    <path d="M 878.500417 188.638125 
L 880.071708 188.638125 
L 880.071708 188.637962 
L 878.500417 188.637962 
z
" clip-path="url(#p1742c95c37)" style="fill: #1f77b4"/>
   </g>
   <g id="patch_312">
    <path d="M 880.745119 188.638125 
L 882.31641 188.638125 
L 882.31641 188.637967 
L 880.745119 188.637967 
z
" clip-path="url(#p1742c95c37)" style="fill: #1f77b4"/>
   </g>
   <g id="matplotlib.axis_5">
    <g id="xtick_13">
     <g id="line2d_26">
      <g>
       <use xlink:href="#mf5c77d62a5" x="657.060563" y="188.638125" style="stroke: #000000; stroke-width: 0.8"/>
      </g>
     </g>
     <g id="text_31">
      <!-- 0 -->
      <g transform="translate(653.879313 203.236563)scale(0.1 -0.1)">
       <use xlink:href="#DejaVuSans-30"/>
      </g>
     </g>
    </g>
    <g id="xtick_14">
     <g id="line2d_27">
      <g>
       <use xlink:href="#mf5c77d62a5" x="701.954603" y="188.638125" style="stroke: #000000; stroke-width: 0.8"/>
      </g>
     </g>
     <g id="text_32">
      <!-- 20 -->
      <g transform="translate(695.592103 203.236563)scale(0.1 -0.1)">
       <use xlink:href="#DejaVuSans-32"/>
       <use xlink:href="#DejaVuSans-30" x="63.623047"/>
      </g>
     </g>
    </g>
    <g id="xtick_15">
     <g id="line2d_28">
      <g>
       <use xlink:href="#mf5c77d62a5" x="746.848643" y="188.638125" style="stroke: #000000; stroke-width: 0.8"/>
      </g>
     </g>
     <g id="text_33">
      <!-- 40 -->
      <g transform="translate(740.486143 203.236563)scale(0.1 -0.1)">
       <use xlink:href="#DejaVuSans-34"/>
       <use xlink:href="#DejaVuSans-30" x="63.623047"/>
      </g>
     </g>
    </g>
    <g id="xtick_16">
     <g id="line2d_29">
      <g>
       <use xlink:href="#mf5c77d62a5" x="791.742684" y="188.638125" style="stroke: #000000; stroke-width: 0.8"/>
      </g>
     </g>
     <g id="text_34">
      <!-- 60 -->
      <g transform="translate(785.380184 203.236563)scale(0.1 -0.1)">
       <use xlink:href="#DejaVuSans-36"/>
       <use xlink:href="#DejaVuSans-30" x="63.623047"/>
      </g>
     </g>
    </g>
    <g id="xtick_17">
     <g id="line2d_30">
      <g>
       <use xlink:href="#mf5c77d62a5" x="836.636724" y="188.638125" style="stroke: #000000; stroke-width: 0.8"/>
      </g>
     </g>
     <g id="text_35">
      <!-- 80 -->
      <g transform="translate(830.274224 203.236563)scale(0.1 -0.1)">
       <use xlink:href="#DejaVuSans-38"/>
       <use xlink:href="#DejaVuSans-30" x="63.623047"/>
      </g>
     </g>
    </g>
    <g id="xtick_18">
     <g id="line2d_31">
      <g>
       <use xlink:href="#mf5c77d62a5" x="881.530765" y="188.638125" style="stroke: #000000; stroke-width: 0.8"/>
      </g>
     </g>
     <g id="text_36">
      <!-- 100 -->
      <g transform="translate(871.987015 203.236563)scale(0.1 -0.1)">
       <use xlink:href="#DejaVuSans-31"/>
       <use xlink:href="#DejaVuSans-30" x="63.623047"/>
       <use xlink:href="#DejaVuSans-30" x="127.246094"/>
      </g>
     </g>
    </g>
    <g id="text_37">
     <!-- Index $i$ of $\sigma_i$ -->
     <g transform="translate(741.268015 216.914688)scale(0.1 -0.1)">
      <use xlink:href="#DejaVuSans-49" transform="translate(0 0.015625)"/>
      <use xlink:href="#DejaVuSans-6e" transform="translate(29.492188 0.015625)"/>
      <use xlink:href="#DejaVuSans-64" transform="translate(92.871094 0.015625)"/>
      <use xlink:href="#DejaVuSans-65" transform="translate(156.347656 0.015625)"/>
      <use xlink:href="#DejaVuSans-78" transform="translate(217.871094 0.015625)"/>
      <use xlink:href="#DejaVuSans-20" transform="translate(277.050781 0.015625)"/>
      <use xlink:href="#DejaVuSans-Oblique-69" transform="translate(308.837891 0.015625)"/>
      <use xlink:href="#DejaVuSans-20" transform="translate(336.621094 0.015625)"/>
      <use xlink:href="#DejaVuSans-6f" transform="translate(368.408203 0.015625)"/>
      <use xlink:href="#DejaVuSans-66" transform="translate(429.589844 0.015625)"/>
      <use xlink:href="#DejaVuSans-20" transform="translate(464.794922 0.015625)"/>
      <use xlink:href="#DejaVuSans-Oblique-3c3" transform="translate(496.582031 0.015625)"/>
      <use xlink:href="#DejaVuSans-Oblique-69" transform="translate(559.960938 -16.390625)scale(0.7)"/>
     </g>
    </g>
   </g>
   <g id="matplotlib.axis_6">
    <g id="ytick_14">
     <g id="line2d_32">
      <g>
       <use xlink:href="#m9487d794b4" x="647.329779" y="188.638125" style="stroke: #000000; stroke-width: 0.8"/>
      </g>
     </g>
     <g id="text_38">
      <!-- 0.0 -->
      <g transform="translate(624.426654 192.437344)scale(0.1 -0.1)">
       <use xlink:href="#DejaVuSans-30"/>
       <use xlink:href="#DejaVuSans-2e" x="63.623047"/>
       <use xlink:href="#DejaVuSans-30" x="95.410156"/>
      </g>
     </g>
    </g>
    <g id="ytick_15">
     <g id="line2d_33">
      <g>
       <use xlink:href="#m9487d794b4" x="647.329779" y="150.558531" style="stroke: #000000; stroke-width: 0.8"/>
      </g>
     </g>
     <g id="text_39">
      <!-- 0.2 -->
      <g transform="translate(624.426654 154.357749)scale(0.1 -0.1)">
       <use xlink:href="#DejaVuSans-30"/>
       <use xlink:href="#DejaVuSans-2e" x="63.623047"/>
       <use xlink:href="#DejaVuSans-32" x="95.410156"/>
      </g>
     </g>
    </g>
    <g id="ytick_16">
     <g id="line2d_34">
      <g>
       <use xlink:href="#m9487d794b4" x="647.329779" y="112.478936" style="stroke: #000000; stroke-width: 0.8"/>
      </g>
     </g>
     <g id="text_40">
      <!-- 0.4 -->
      <g transform="translate(624.426654 116.278155)scale(0.1 -0.1)">
       <use xlink:href="#DejaVuSans-30"/>
       <use xlink:href="#DejaVuSans-2e" x="63.623047"/>
       <use xlink:href="#DejaVuSans-34" x="95.410156"/>
      </g>
     </g>
    </g>
    <g id="ytick_17">
     <g id="line2d_35">
      <g>
       <use xlink:href="#m9487d794b4" x="647.329779" y="74.399342" style="stroke: #000000; stroke-width: 0.8"/>
      </g>
     </g>
     <g id="text_41">
      <!-- 0.6 -->
      <g transform="translate(624.426654 78.19856)scale(0.1 -0.1)">
       <use xlink:href="#DejaVuSans-30"/>
       <use xlink:href="#DejaVuSans-2e" x="63.623047"/>
       <use xlink:href="#DejaVuSans-36" x="95.410156"/>
      </g>
     </g>
    </g>
    <g id="ytick_18">
     <g id="line2d_36">
      <g>
       <use xlink:href="#m9487d794b4" x="647.329779" y="36.319747" style="stroke: #000000; stroke-width: 0.8"/>
      </g>
     </g>
     <g id="text_42">
      <!-- 0.8 -->
      <g transform="translate(624.426654 40.118966)scale(0.1 -0.1)">
       <use xlink:href="#DejaVuSans-30"/>
       <use xlink:href="#DejaVuSans-2e" x="63.623047"/>
       <use xlink:href="#DejaVuSans-38" x="95.410156"/>
      </g>
     </g>
    </g>
   </g>
   <g id="patch_313">
    <path d="M 647.329779 188.638125 
L 647.329779 22.318125 
" style="fill: none; stroke: #000000; stroke-width: 0.8; stroke-linejoin: miter; stroke-linecap: square"/>
   </g>
   <g id="patch_314">
    <path d="M 893.50625 188.638125 
L 893.50625 22.318125 
" style="fill: none; stroke: #000000; stroke-width: 0.8; stroke-linejoin: miter; stroke-linecap: square"/>
   </g>
   <g id="patch_315">
    <path d="M 647.329779 188.638125 
L 893.50625 188.638125 
" style="fill: none; stroke: #000000; stroke-width: 0.8; stroke-linejoin: miter; stroke-linecap: square"/>
   </g>
   <g id="patch_316">
    <path d="M 647.329779 22.318125 
L 893.50625 22.318125 
" style="fill: none; stroke: #000000; stroke-width: 0.8; stroke-linejoin: miter; stroke-linecap: square"/>
   </g>
   <g id="text_43">
    <!-- $\alpha = 3$ -->
    <g transform="translate(755.238015 16.318125)scale(0.12 -0.12)">
     <defs>
      <path id="DejaVuSans-33" d="M 2597 2516 
Q 3050 2419 3304 2112 
Q 3559 1806 3559 1356 
Q 3559 666 3084 287 
Q 2609 -91 1734 -91 
Q 1441 -91 1130 -33 
Q 819 25 488 141 
L 488 750 
Q 750 597 1062 519 
Q 1375 441 1716 441 
Q 2309 441 2620 675 
Q 2931 909 2931 1356 
Q 2931 1769 2642 2001 
Q 2353 2234 1838 2234 
L 1294 2234 
L 1294 2753 
L 1863 2753 
Q 2328 2753 2575 2939 
Q 2822 3125 2822 3475 
Q 2822 3834 2567 4026 
Q 2313 4219 1838 4219 
Q 1578 4219 1281 4162 
Q 984 4106 628 3988 
L 628 4550 
Q 988 4650 1302 4700 
Q 1616 4750 1894 4750 
Q 2613 4750 3031 4423 
Q 3450 4097 3450 3541 
Q 3450 3153 3228 2886 
Q 3006 2619 2597 2516 
z
" transform="scale(0.015625)"/>
     </defs>
     <use xlink:href="#DejaVuSans-Oblique-3b1" transform="translate(0 0.78125)"/>
     <use xlink:href="#DejaVuSans-3d" transform="translate(85.400391 0.78125)"/>
     <use xlink:href="#DejaVuSans-33" transform="translate(188.671875 0.78125)"/>
    </g>
   </g>
  </g>
 </g>
 <defs>
  <clipPath id="p72f6cde606">
   <rect x="56.50625" y="22.318125" width="246.176471" height="166.32"/>
  </clipPath>
  <clipPath id="pbbfcc6f41c">
   <rect x="351.918015" y="22.318125" width="246.176471" height="166.32"/>
  </clipPath>
  <clipPath id="p1742c95c37">
   <rect x="647.329779" y="22.318125" width="246.176471" height="166.32"/>
  </clipPath>
 </defs>
</svg>
